<?xml version="1.0" standalone="no"?>
<!DOCTYPE svg PUBLIC "-//W3C//DTD SVG 20010904//EN"
 "http://www.w3.org/TR/2001/REC-SVG-20010904/DTD/svg10.dtd">
<svg version="1.0" xmlns="http://www.w3.org/2000/svg"
 width="1080.000000pt" height="1620.000000pt" viewBox="0 0 1080.000000 1620.000000"
 preserveAspectRatio="xMidYMid meet">

<g transform="translate(0.000000,1620.000000) scale(0.100000,-0.100000)"
fill="#000000" stroke="none">
<path d="M562 15917 c-18 -21 -25 -68 -27 -172 -1 -55 -7 -134 -14 -175 -6
-41 -9 -86 -6 -99 l6 -24 329 7 c181 3 335 8 342 10 7 3 54 7 103 10 50 3 117
10 150 16 33 5 61 10 63 10 11 0 -2 20 -13 20 -22 0 -18 27 5 40 10 6 23 10
27 9 4 -1 10 0 13 1 3 1 32 3 64 5 35 1 62 7 64 13 2 7 -3 12 -12 12 -9 0 -16
5 -16 11 0 5 -10 9 -22 7 -32 -4 -44 53 -16 76 10 9 23 14 28 11 17 -10 11 4
-10 25 -16 16 -20 17 -20 4 0 -8 -5 -12 -11 -8 -8 4 -8 9 0 17 10 10 24 14 78
21 13 1 26 6 30 9 3 4 19 7 34 7 15 0 34 6 41 14 11 11 24 11 66 3 29 -6 52
-16 52 -21 0 -6 5 -4 10 4 8 13 11 12 22 -3 8 -10 20 -17 27 -15 24 6 23 -22
-1 -31 -22 -8 -22 -9 9 -15 18 -4 37 -5 43 -1 6 3 7 0 4 -9 -7 -18 21 -23 31
-6 3 6 24 10 46 10 21 0 39 5 39 11 0 5 -4 8 -9 4 -8 -4 -54 10 -71 23 -9 7
26 22 53 22 15 0 27 4 27 9 0 6 17 11 39 13 32 3 37 6 32 22 -7 17 -8 17 -24
1 -16 -16 -18 -15 -23 14 -6 28 -10 31 -44 31 -21 0 -43 7 -50 15 -14 17 -35
21 -25 5 3 -5 0 -10 -9 -10 -8 0 -16 5 -18 11 -3 9 -9 9 -25 1 -18 -10 -20 -9
-16 8 4 14 -1 21 -20 25 -32 8 -77 -20 -78 -49 -1 -17 -2 -18 -6 -3 -4 16 -8
15 -31 -10 -15 -17 -27 -23 -29 -16 -3 9 -12 9 -29 2 -15 -5 -32 -5 -42 0 -9
5 -31 6 -48 4 -18 -3 -35 0 -38 6 -9 14 -225 14 -316 1 -36 -5 -122 -13 -192
-16 l-128 -6 -30 30 c-16 17 -30 37 -30 45 0 24 -23 27 -200 27 -122 0 -170
-3 -178 -13z"/>
<path d="M9827 15923 l-117 -4 6 -23 c4 -18 1 -25 -13 -29 -10 -3 12 -5 49 -6
36 0 68 -6 70 -11 2 -7 14 -5 33 4 26 13 38 13 80 2 28 -7 58 -12 68 -10 21 3
22 -3 2 -23 -15 -15 -66 -18 -216 -14 -25 1 -58 -3 -72 -8 -18 -7 -27 -7 -27
0 0 6 -6 6 -19 -1 -11 -5 -31 -10 -45 -10 -14 0 -26 -4 -26 -9 0 -12 88 -31
107 -24 7 3 19 1 26 -5 14 -11 111 -11 123 0 4 4 13 3 21 -3 10 -9 13 -7 13 6
0 13 5 16 23 11 12 -3 59 -8 104 -10 44 -2 87 -8 95 -12 7 -5 102 -10 211 -11
l198 -2 -3 57 c-3 54 -4 57 -28 55 -35 -4 -139 -5 -173 -2 -27 1 -28 2 -7 16
17 12 24 12 36 2 10 -8 18 -9 22 -3 10 14 45 27 37 13 -5 -7 12 -9 49 -7 59 3
68 14 38 41 -15 13 -58 16 -282 20 -146 2 -318 2 -383 0z"/>
<path d="M10250 15412 c0 -9 -7 -11 -22 -7 -16 6 -20 4 -15 -8 3 -8 1 -19 -5
-25 -8 -8 -6 -19 6 -37 14 -21 20 -24 31 -15 16 14 35 5 35 -16 0 -8 5 -14 10
-14 6 0 10 6 10 14 0 8 5 18 12 22 6 4 8 3 4 -4 -3 -5 0 -12 6 -15 10 -3 10
-7 2 -18 -9 -11 -8 -17 3 -28 13 -12 14 -11 8 7 -5 17 -3 21 9 16 9 -3 16 -12
16 -18 0 -7 7 -13 15 -13 8 0 15 4 15 9 0 4 -5 8 -12 8 -6 0 -8 3 -5 7 4 3 15
0 24 -8 10 -8 27 -14 38 -13 54 3 55 4 55 35 0 22 4 30 13 26 10 -4 14 9 16
48 l2 54 -115 -4 c-64 -2 -121 -7 -127 -11 -6 -3 -15 0 -20 7 -7 11 -9 11 -9
1z"/>
<path d="M9827 15385 c-11 -8 -14 -16 -8 -19 5 -4 15 2 21 11 8 13 10 14 9 3
-3 -28 1 -38 17 -44 10 -4 13 -2 8 6 -5 7 0 9 13 6 17 -4 20 -1 19 17 0 13 -6
20 -13 18 -6 -3 -20 0 -30 5 -13 7 -24 6 -36 -3z"/>
<path d="M10160 15370 c0 -5 5 -10 10 -10 6 0 10 5 10 10 0 6 -4 10 -10 10 -5
0 -10 -4 -10 -10z"/>
<path d="M10205 15202 c-60 -7 -132 -11 -159 -9 -38 3 -53 0 -68 -15 -17 -17
-18 -20 -2 -35 9 -9 21 -29 26 -45 6 -15 16 -28 24 -28 8 0 14 -4 14 -8 0 -5
7 -9 15 -9 8 0 12 4 9 9 -3 4 0 8 5 8 6 0 11 -4 11 -9 0 -16 34 -24 123 -27
48 -2 92 -6 98 -9 5 -4 18 -4 27 0 30 13 71 15 77 5 4 -6 18 -2 36 10 24 18
28 18 22 5 -5 -15 -3 -15 15 -4 21 13 23 57 4 83 -13 17 -12 56 1 56 6 0 3 8
-6 18 -22 21 -112 23 -272 4z"/>
<path d="M658 15175 c-2 -3 -86 -6 -186 -8 -101 -2 -185 -6 -188 -9 -2 -3 -6
-126 -7 -274 l-2 -269 68 -5 c37 -3 67 -3 67 0 0 3 57 4 127 2 158 -4 177 0
168 35 -3 14 -13 32 -21 40 -29 29 -33 52 -28 134 3 46 6 91 6 99 1 8 5 21 11
28 5 7 7 15 4 19 -8 7 24 63 36 63 4 0 6 4 3 8 -3 5 24 27 59 51 69 45 82 58
69 71 -10 8 -179 22 -186 15z"/>
<path d="M1170 15150 c-28 -4 -34 -9 -32 -25 4 -23 29 -45 52 -45 10 0 16 -10
18 -27 3 -57 5 -68 14 -74 5 -3 12 -30 15 -58 4 -41 1 -57 -13 -72 -11 -12
-13 -19 -5 -19 7 0 9 -4 6 -10 -3 -5 0 -10 9 -10 8 0 17 6 19 13 4 10 6 10 6
0 1 -7 6 -13 12 -13 5 0 7 5 3 12 -5 7 -3 8 5 3 7 -4 24 -2 37 5 18 10 27 10
37 1 12 -9 13 -7 10 14 -5 21 -10 24 -36 21 -17 -2 -33 -8 -35 -15 -6 -17 -22
-13 -22 7 0 10 14 23 33 31 17 8 35 19 39 25 5 8 11 7 20 -2 14 -14 32 -16 24
-3 -4 5 0 12 6 14 8 3 6 6 -4 6 -22 1 -24 17 -3 25 24 9 18 36 -7 36 l-23 0
25 21 c23 18 23 19 3 9 -17 -8 -23 -8 -23 0 0 6 -5 8 -10 5 -16 -10 -43 23
-37 45 3 10 0 21 -6 23 -8 2 -7 6 1 11 7 4 12 2 12 -3 0 -6 9 -11 20 -11 11 0
20 5 20 11 0 6 -9 13 -20 16 -11 3 -20 9 -20 13 0 4 -23 7 -51 7 -28 0 -54 4
-58 9 -3 5 -22 7 -41 4z m85 -70 c3 -5 -1 -10 -9 -10 -9 0 -16 5 -16 10 0 6 4
10 9 10 6 0 13 -4 16 -10z m35 -30 c0 -5 -5 -10 -11 -10 -5 0 -7 5 -4 10 3 6
8 10 11 10 2 0 4 -4 4 -10z"/>
<path d="M1415 15000 c-3 -5 1 -10 9 -10 9 0 16 5 16 10 0 6 -4 10 -9 10 -6 0
-13 -4 -16 -10z"/>
<path d="M10375 14970 c-3 -5 -1 -10 4 -10 6 0 11 5 11 10 0 6 -2 10 -4 10 -3
0 -8 -4 -11 -10z"/>
<path d="M10408 14933 c7 -3 16 -2 19 1 4 3 -2 6 -13 5 -11 0 -14 -3 -6 -6z"/>
<path d="M10242 14902 c-11 -11 -26 -22 -33 -25 -8 -3 48 -5 123 -4 76 1 138
5 138 8 0 3 11 4 25 1 15 -2 25 0 25 7 0 6 -6 11 -12 11 -9 0 -8 3 2 10 9 5
-23 7 -85 3 -55 -3 -104 -5 -110 -6 -5 0 -20 3 -32 7 -15 5 -28 1 -41 -12z"/>
<path d="M880 14861 c0 -18 18 -21 30 -6 10 13 9 15 -9 15 -11 0 -21 -4 -21
-9z"/>
<path d="M1428 14833 c6 -2 18 -2 25 0 6 3 1 5 -13 5 -14 0 -19 -2 -12 -5z"/>
<path d="M1423 14807 c6 -16 -11 -27 -44 -27 -11 0 -22 -7 -25 -15 -4 -8 -10
-12 -15 -9 -5 3 -9 -4 -9 -15 0 -26 -17 -28 -23 -3 -3 9 -5 -2 -6 -25 0 -24
-5 -43 -10 -43 -5 0 -7 10 -3 22 3 13 1 19 -6 15 -5 -4 -13 -1 -16 5 -5 10 -7
10 -12 1 -3 -7 -12 -13 -21 -13 -10 0 -12 -6 -8 -20 5 -14 2 -20 -10 -20 -12
0 -15 6 -10 21 6 18 4 19 -13 10 -11 -6 -33 -12 -48 -13 -16 -1 -37 -10 -46
-20 -16 -16 -7 -17 165 -17 214 1 270 6 263 25 -3 7 -1 16 5 19 14 9 8 86 -8
110 -7 11 -13 15 -13 9 0 -5 -15 -10 -34 -10 -19 0 -34 4 -33 9 1 5 -4 12 -12
15 -10 3 -12 0 -8 -11z m67 -37 c0 -5 -2 -10 -4 -10 -3 0 -8 5 -11 10 -3 6 -1
10 4 10 6 0 11 -4 11 -10z m-230 -95 c0 -8 -4 -15 -8 -15 -5 0 -9 7 -9 15 0 8
4 15 9 15 4 0 8 -7 8 -15z"/>
<path d="M1213 14781 c-8 -7 -11 -16 -8 -19 3 -4 10 0 15 8 8 12 10 11 10 -5
1 -20 1 -20 15 -1 15 19 15 19 15 -2 0 -12 5 -22 11 -22 5 0 7 5 4 10 -3 6 3
10 13 10 16 0 32 18 32 35 0 11 -95 -2 -107 -14z"/>
<path d="M1368 14793 c7 -3 16 -2 19 1 4 3 -2 6 -13 5 -11 0 -14 -3 -6 -6z"/>
<path d="M2173 14750 c-28 -3 -53 -8 -55 -10 -2 -3 -16 -22 -32 -43 -15 -21
-25 -41 -22 -44 3 -3 44 -7 91 -8 67 -1 88 2 94 13 5 10 10 11 15 4 7 -12 37
-5 48 11 3 6 19 11 35 13 44 4 74 12 89 25 8 6 14 8 14 4 0 -4 6 -2 13 4 8 6
17 8 20 4 4 -3 7 0 7 8 0 10 -18 15 -73 18 -121 6 -190 6 -244 1z"/>
<path d="M2328 14663 c7 -3 16 -2 19 1 4 3 -2 6 -13 5 -11 0 -14 -3 -6 -6z"/>
<path d="M8727 14321 c-10 -3 -23 -17 -30 -30 -7 -13 -25 -34 -40 -45 -25 -19
-43 -21 -150 -22 -160 -1 -176 -8 -195 -89 -22 -91 -23 -181 -4 -216 10 -16
20 -29 24 -29 4 0 13 -7 21 -15 21 -20 123 -35 143 -21 14 11 14 18 -5 71 -30
86 -28 132 10 178 111 134 360 55 376 -120 5 -52 -20 -126 -52 -153 -8 -7 -15
-23 -15 -35 0 -23 -88 -125 -108 -125 -19 0 -42 -31 -42 -56 0 -15 -6 -24 -16
-24 -9 0 -14 -6 -11 -12 2 -7 -3 -22 -13 -33 -24 -28 -51 -101 -44 -120 3 -8
1 -15 -5 -15 -6 0 -10 -5 -8 -11 2 -13 -74 -70 -84 -63 -4 2 -9 -5 -12 -15 -6
-24 -91 -36 -252 -36 -106 0 -112 1 -155 30 -58 39 -79 83 -78 162 0 34 -3 67
-7 74 -5 6 -9 55 -11 108 -3 94 -4 96 -36 124 -27 24 -38 27 -68 22 -95 -17
-151 -48 -151 -82 2 -86 13 -264 21 -333 5 -47 12 -133 15 -191 2 -59 7 -114
11 -122 3 -9 20 -19 37 -23 64 -15 743 -2 888 17 41 5 92 10 112 11 49 2 56
31 19 78 -16 19 -31 43 -35 52 -3 9 -21 25 -39 34 -41 21 -97 80 -111 117 -12
32 39 71 118 91 85 21 98 31 90 67 -4 17 0 40 11 61 10 18 18 38 18 44 1 6 13
26 29 45 15 18 27 40 27 48 0 9 18 36 40 60 22 24 40 48 40 53 0 6 8 27 19 47
44 86 61 134 61 170 0 40 -22 93 -52 125 -10 11 -18 27 -18 37 0 9 -14 22 -31
30 -18 7 -45 24 -61 39 -41 38 -144 60 -191 41z"/>
<path d="M10500 14299 c0 -5 -4 -8 -9 -5 -9 6 -61 -41 -61 -56 0 -5 5 -6 10
-3 6 3 10 1 10 -4 0 -6 7 -11 16 -11 9 0 12 -5 8 -12 -5 -7 -1 -9 12 -6 17 4
19 1 16 -23 -2 -16 -8 -27 -12 -24 -5 3 -11 1 -15 -5 -3 -5 -2 -10 4 -10 6 0
17 -12 25 -27 13 -26 14 -20 15 85 0 65 -4 112 -9 112 -6 0 -10 -5 -10 -11z"/>
<path d="M278 14279 c-10 -30 0 -593 11 -597 6 -2 11 -10 11 -18 0 -9 5 -12
11 -8 12 7 8 -20 -7 -60 -3 -9 -1 -16 5 -16 18 0 13 -34 -8 -57 -11 -12 -20
-29 -20 -39 0 -11 -3 -125 -7 -254 -4 -129 -3 -297 1 -372 6 -121 9 -136 23
-130 10 3 22 13 29 21 10 14 15 14 34 3 16 -11 23 -11 29 -2 4 6 10 11 14 10
4 -1 10 0 14 3 4 2 1 2 -6 1 -6 -2 -12 4 -12 12 0 8 4 13 9 9 5 -3 12 -1 16 5
3 5 14 10 25 10 10 0 20 7 24 15 3 8 9 15 13 14 26 -4 53 2 47 12 -4 6 1 10
12 8 11 -2 31 0 46 4 49 13 52 43 49 482 -1 220 -4 416 -6 435 -14 159 -18
180 -36 185 -10 4 -23 3 -29 0 -5 -3 -10 1 -10 10 0 9 -6 15 -12 12 -7 -2 -12
-10 -10 -16 1 -7 -2 -10 -7 -6 -16 9 -1 35 21 35 10 0 17 3 15 8 -3 4 -1 16 4
27 7 19 8 19 8 -2 1 -13 5 -23 10 -23 11 0 41 62 41 85 0 9 6 28 13 43 16 31
13 117 -3 137 -7 8 -24 14 -38 13 -15 -1 -93 2 -173 6 -119 7 -147 6 -151 -5z"/>
<path d="M6213 14221 c-43 -11 -150 -122 -180 -188 -28 -61 -30 -161 -3 -154
22 5 44 9 51 10 4 1 20 30 37 66 30 61 41 76 89 118 33 29 119 45 178 32 55
-11 125 -48 125 -65 0 -6 5 -8 10 -5 6 3 10 -2 10 -12 1 -66 64 -149 104 -137
13 5 17 2 11 -7 -3 -8 7 2 24 21 17 19 31 40 31 47 0 17 -50 74 -61 67 -8 -5
-13 10 -10 29 1 4 -7 3 -18 -2 -16 -9 -18 -8 -14 8 3 10 0 22 -6 25 -6 4 -11
18 -11 30 0 28 -21 36 -94 36 -50 0 -119 27 -156 62 -24 23 -72 30 -117 19z"/>
<path d="M1716 14200 c-16 -10 -59 -50 -96 -88 -37 -39 -77 -73 -88 -76 -12
-4 -30 -22 -42 -41 -22 -36 -62 -174 -54 -187 3 -4 1 -8 -3 -8 -5 0 -10 -11
-11 -25 -1 -14 2 -25 7 -25 5 0 7 -14 5 -30 -2 -20 1 -33 10 -36 8 -3 15 -13
15 -22 0 -78 10 -115 37 -138 16 -13 33 -23 37 -24 5 0 33 -21 62 -46 38 -33
60 -62 74 -98 35 -89 35 -92 1 -126 -16 -17 -30 -35 -30 -39 0 -18 -38 -24
-161 -27 l-126 -2 -38 38 c-20 21 -36 46 -34 56 1 11 -4 33 -11 49 -23 55 -30
113 -19 168 18 93 19 147 3 154 -7 3 -14 11 -14 19 0 8 -5 14 -10 14 -6 0 -8
10 -4 24 5 20 0 25 -25 34 -22 8 -31 8 -31 0 0 -7 -4 -7 -12 -1 -7 6 -40 10
-74 9 -109 -2 -116 -23 -114 -316 3 -399 6 -515 14 -539 19 -58 62 -76 140
-58 15 3 123 9 240 12 116 3 221 8 232 10 36 8 124 -38 124 -64 0 -6 4 -11 9
-11 18 0 21 -50 6 -105 -10 -41 -24 -66 -54 -94 -21 -21 -45 -39 -53 -40 -7
-1 -134 -4 -283 -5 -158 -2 -281 -8 -297 -14 -63 -25 -69 -63 -48 -312 13
-159 17 -237 19 -371 1 -72 3 -78 28 -94 19 -13 48 -18 100 -19 62 0 77 3 95
22 26 25 27 30 30 200 l4 133 29 25 c48 40 74 47 193 50 61 2 130 8 152 13 22
5 40 5 40 1 0 -5 51 -6 113 -2 61 3 137 5 167 4 150 -4 264 0 282 9 11 6 41 8
68 5 27 -3 51 -2 54 2 8 13 71 13 102 1 16 -7 32 -12 36 -11 4 1 24 -15 45
-35 21 -20 40 -36 43 -36 8 2 6 -131 -3 -144 -5 -7 -5 -19 -1 -25 4 -7 4 -10
-1 -6 -11 10 -54 -54 -60 -89 -4 -21 2 -37 25 -62 29 -34 31 -34 107 -35 115
0 130 4 124 38 -1 4 3 14 9 22 13 15 17 94 6 112 -4 7 -7 110 -6 230 0 119 -2
239 -6 266 -10 68 -31 75 -229 78 -85 2 -155 5 -155 8 0 4 -16 4 -35 2 -19 -2
-42 1 -50 8 -10 9 -15 9 -15 1 0 -6 -7 -11 -15 -11 -8 0 -15 5 -15 10 0 6 -18
10 -40 10 -22 0 -40 4 -40 9 0 5 -18 11 -40 15 -80 13 -94 27 -129 137 -22 71
-6 113 63 165 44 34 67 38 271 50 55 3 117 10 138 15 20 6 41 8 45 5 4 -2 44
0 87 5 89 11 120 31 127 79 2 16 2 27 -1 25 -3 -1 -6 51 -6 118 0 88 -3 121
-13 125 -6 2 -10 7 -7 12 3 5 0 21 -6 37 -7 15 -11 37 -10 47 2 14 -2 17 -14
12 -11 -4 -15 -2 -13 6 6 18 -33 57 -39 40 -4 -10 -7 -10 -17 1 -8 11 -19 12
-43 5 -31 -8 -33 -11 -33 -54 0 -64 -42 -124 -113 -161 -26 -13 -63 -16 -187
-17 -176 -1 -208 7 -239 60 -44 74 2 192 127 325 31 34 34 38 71 124 24 57 22
128 -5 170 -10 15 -12 25 -5 25 6 0 2 9 -9 20 -11 11 -21 29 -21 40 -2 28 -3
33 -12 47 -4 7 -15 36 -24 65 -15 54 -83 138 -111 138 -7 0 -11 4 -7 9 3 6
-12 9 -35 8 -23 -2 -43 0 -45 3 -2 3 -48 6 -102 7 -81 2 -103 -2 -127 -17z
m210 -242 c34 -16 50 -33 69 -72 50 -100 19 -197 -77 -247 -89 -45 -176 -33
-232 33 -32 37 -36 48 -36 99 0 67 18 114 57 150 67 63 143 75 219 37z"/>
<path d="M3924 14188 c-76 -67 -82 -182 -8 -141 16 9 47 26 69 38 22 11 42 25
44 30 13 34 19 53 25 78 6 27 6 27 -43 27 -42 0 -56 -5 -87 -32z"/>
<path d="M4270 14111 c0 -5 -12 -11 -26 -13 -15 -2 -33 -12 -40 -23 -12 -18
-9 -24 21 -59 61 -71 67 -142 20 -236 -26 -51 -52 -76 -110 -107 -40 -21 -145
-39 -145 -24 0 4 -23 13 -50 20 -28 7 -48 17 -45 21 6 10 -42 21 -70 16 -11
-1 -21 -10 -23 -18 -5 -26 69 -91 101 -87 22 2 57 -13 51 -23 -7 -12 50 -64
92 -84 17 -8 50 -17 73 -19 35 -3 43 0 61 25 11 15 20 31 20 35 0 4 30 39 66
78 38 42 80 102 101 144 34 69 35 76 29 140 -9 87 -59 209 -89 217 -30 8 -37
7 -37 -3z"/>
<path d="M10179 13986 c-2 -3 -38 -6 -79 -7 -41 -1 -82 -4 -91 -6 -20 -6 -43
-85 -35 -124 3 -17 8 -93 11 -168 3 -75 10 -191 15 -259 6 -68 10 -150 10
-183 0 -33 5 -69 10 -79 16 -30 73 -39 210 -36 69 2 157 4 197 5 107 2 106 -2
101 211 -2 132 -7 181 -17 194 -10 12 -17 13 -27 5 -15 -13 -81 -9 -106 5 -10
6 -18 17 -18 25 0 8 -7 22 -16 32 -8 9 -17 23 -18 31 -15 63 -20 78 -28 78 -5
0 -6 5 -3 10 4 6 1 17 -5 25 -8 9 -10 33 -6 67 3 29 6 64 6 78 0 26 -37 65
-74 76 -11 4 -24 11 -27 15 -3 5 -7 7 -10 5z"/>
<path d="M9483 13899 c-23 -4 -51 -12 -61 -18 -20 -10 -37 -65 -26 -83 3 -5
10 -40 14 -77 5 -37 14 -79 19 -94 10 -27 10 -27 105 -24 52 1 98 5 101 9 8 7
8 133 0 208 -8 86 -34 99 -152 79z"/>
<path d="M7191 13780 c-73 -11 -87 -27 -74 -83 5 -24 7 -68 4 -98 -2 -30 -4
-96 -3 -147 1 -71 -2 -97 -13 -109 -8 -8 -15 -20 -15 -27 0 -22 -33 -44 -75
-50 -35 -5 -345 -10 -415 -7 -14 0 -38 12 -54 26 -16 14 -30 25 -30 25 -1 1
-18 3 -38 6 -32 5 -41 1 -63 -22 -14 -15 -25 -35 -25 -44 0 -30 -36 -53 -91
-59 -4 -1 -9 -10 -12 -20 -3 -14 -1 -18 9 -14 8 3 14 0 14 -7 0 -6 4 -8 10 -5
6 4 7 -6 4 -25 -5 -20 -3 -30 6 -30 7 0 10 7 7 15 -7 18 9 30 19 14 4 -8 9 -7
15 2 7 11 9 10 9 -4 0 -10 6 -17 13 -16 38 5 97 -2 92 -11 -3 -5 1 -10 10 -10
9 0 13 5 10 10 -3 6 1 10 9 10 9 0 16 -5 16 -11 0 -7 10 -9 28 -5 16 4 22 3
14 -2 -10 -7 -10 -11 3 -22 12 -10 15 -10 15 0 0 8 4 9 13 3 19 -15 90 -18
420 -16 350 2 343 0 340 75 -1 24 -4 124 -7 223 -3 99 -8 191 -12 205 -3 13
-7 66 -9 118 -3 52 -10 100 -16 108 -12 15 -43 16 -128 4z"/>
<path d="M4859 13758 c-2 -25 -1 -66 6 -223 9 -199 8 -212 -13 -250 -31 -52
-94 -70 -287 -81 -55 -3 -130 -9 -167 -14 -37 -4 -85 -7 -107 -6 -33 1 -41 -3
-44 -19 -4 -18 -4 -17 -6 3 0 12 -5 22 -10 22 -5 0 -16 3 -25 6 -11 4 -16 1
-16 -10 0 -20 -19 -21 -26 -2 -4 11 -21 14 -60 13 -30 -1 -54 -5 -54 -8 0 -4
-9 -9 -20 -12 -24 -6 -27 -35 -4 -44 12 -4 13 -8 3 -14 -10 -6 -10 -12 4 -27
9 -10 14 -22 10 -26 -4 -3 4 -5 17 -4 12 2 25 -3 28 -11 3 -9 0 -11 -8 -6 -9
6 -9 3 0 -15 8 -15 15 -19 22 -12 5 5 19 7 30 4 14 -3 16 -7 7 -12 -8 -6 -4
-12 12 -20 13 -7 26 -16 29 -21 9 -13 60 -22 60 -11 0 6 16 19 36 28 26 12 32
19 22 25 -10 7 -9 9 5 9 9 0 17 5 17 11 0 7 38 9 113 8 119 -4 470 8 550 17
40 5 50 10 59 33 10 26 6 114 -11 226 -5 33 -10 103 -10 155 -1 120 -27 270
-47 270 -8 0 -26 7 -39 16 -24 15 -25 15 -25 -2 -1 -18 -1 -18 -11 -1 -12 20
-38 23 -40 5z m-699 -598 c0 -5 -4 -10 -10 -10 -5 0 -10 5 -10 10 0 6 5 10 10
10 6 0 10 -4 10 -10z"/>
<path d="M3220 13661 c-14 -4 -25 -13 -25 -21 0 -22 107 -27 124 -6 7 8 10 20
6 26 -7 11 -66 12 -105 1z"/>
<path d="M5512 13455 c-10 -12 -10 -15 0 -15 9 0 9 -3 -2 -10 -13 -9 -13 -11
0 -20 8 -5 10 -10 5 -10 -6 0 -11 -9 -11 -20 0 -11 4 -20 9 -20 5 0 4 -6 -2
-14 -10 -11 -8 -15 6 -19 17 -4 17 -5 0 -6 -15 -1 -16 -5 -7 -21 7 -14 7 -20
0 -20 -18 0 -50 -38 -37 -44 7 -2 4 -5 -5 -5 -21 -1 -30 -57 -26 -166 l3 -80
30 1 c37 1 163 20 232 36 31 6 62 21 74 35 13 12 30 23 40 23 13 0 17 8 17 29
-1 15 2 33 6 39 5 8 1 10 -8 6 -9 -3 -16 -1 -16 5 0 6 -9 11 -21 11 -42 0
-163 44 -190 69 -33 30 -37 47 -38 154 -1 73 -2 77 -23 77 -13 -1 -29 -7 -36
-15z"/>
<path d="M6301 13104 c0 -11 3 -14 6 -6 3 7 2 16 -1 19 -3 4 -6 -2 -5 -13z"/>
<path d="M5855 13100 c3 -5 8 -10 11 -10 2 0 4 5 4 10 0 6 -5 10 -11 10 -5 0
-7 -4 -4 -10z"/>
<path d="M10509 12805 c-11 -10 -109 -35 -159 -40 -25 -3 -81 -10 -124 -17
-44 -6 -92 -12 -108 -12 -66 -3 -68 -20 -49 -386 6 -113 10 -212 9 -220 0 -8
0 -45 0 -82 3 -95 17 -108 108 -100 38 3 86 10 107 16 l38 11 3 95 c1 53 6
101 9 108 4 6 2 26 -6 44 -24 59 -5 188 27 188 6 0 21 11 33 24 25 26 69 37
101 25 17 -7 20 -2 26 38 13 95 1 325 -15 308z"/>
<path d="M285 12700 c-3 -5 1 -10 9 -10 9 0 16 5 16 10 0 6 -4 10 -9 10 -6 0
-13 -4 -16 -10z"/>
<path d="M280 12650 c0 -5 5 -10 10 -10 6 0 10 5 10 10 0 6 -4 10 -10 10 -5 0
-10 -4 -10 -10z"/>
<path d="M276 12528 c-13 -195 -5 -328 22 -328 8 0 12 -3 9 -6 -3 -4 5 -15 18
-26 19 -15 24 -26 20 -46 -2 -14 1 -29 7 -33 9 -6 8 -12 -2 -24 -16 -20 -22
-135 -7 -153 8 -10 7 -16 -1 -21 -7 -4 -8 -12 -2 -21 16 -24 12 -78 -6 -88
-13 -7 -11 -11 13 -20 76 -31 306 -39 323 -12 15 23 11 209 -4 268 -8 29 -15
55 -15 57 -1 3 -1 6 -2 8 -7 16 -4 105 4 115 12 15 1 248 -14 305 -14 54 -58
72 -154 62 -141 -14 -153 -14 -175 5 -12 11 -18 24 -14 34 3 9 2 16 -3 16 -6
0 -13 -41 -17 -92z"/>
<path d="M7215 12604 c-116 -24 -211 -35 -320 -39 -71 -2 -170 -11 -220 -20
-91 -17 -286 -26 -295 -13 -3 4 -22 -9 -42 -28 -20 -18 -41 -34 -47 -34 -6 0
-15 -9 -21 -19 -8 -15 -5 -27 13 -55 12 -19 29 -38 37 -41 19 -8 443 -7 615 1
112 6 136 4 164 -10 43 -23 69 -83 81 -188 5 -46 14 -129 20 -186 14 -131 21
-140 107 -136 111 5 132 37 119 177 -4 40 -8 95 -10 122 -1 28 -7 97 -12 155
-4 58 -7 144 -6 191 3 84 2 87 -24 108 -21 16 -40 21 -83 20 -31 -1 -65 -3
-76 -5z"/>
<path d="M7900 12582 c-78 -17 -90 -26 -90 -63 0 -15 -4 -31 -10 -34 -21 -13
-7 -535 15 -606 8 -26 120 -36 188 -18 l52 14 -1 100 c0 55 -2 143 -4 195 -4
90 -2 97 23 134 15 21 27 43 27 47 0 22 70 44 170 53 95 9 150 19 150 28 0 5
5 6 11 3 6 -4 21 3 35 16 24 22 34 46 14 34 -5 -3 -10 -2 -10 4 0 5 4 12 10
16 11 7 3 33 -17 56 -20 23 -97 32 -313 34 -131 1 -204 -3 -250 -13z"/>
<path d="M4870 12510 c0 -5 -18 -10 -39 -10 -22 0 -41 -5 -43 -10 -2 -6 -13
-12 -26 -13 -14 -1 -22 -8 -22 -19 0 -10 -5 -18 -11 -18 -5 0 -7 5 -3 11 4 7
2 10 -5 8 -7 -3 -12 -8 -11 -13 1 -5 -4 -12 -11 -17 -17 -10 -19 -47 -2 -61 7
-6 44 -13 81 -15 130 -8 157 -41 167 -203 4 -68 16 -252 18 -275 4 -45 76 -56
109 -16 15 20 18 42 18 160 0 75 -5 181 -11 236 -5 55 -12 129 -14 164 -7 104
-5 101 -93 100 -52 0 -71 -3 -57 -9 11 -5 14 -9 7 -9 -7 -1 -22 4 -33 9 -13 7
-19 7 -19 0z"/>
<path d="M9556 12436 c-59 -57 -95 -127 -91 -182 1 -16 9 -62 18 -103 13 -58
14 -83 6 -116 -16 -63 -9 -98 21 -106 49 -14 194 -10 216 6 24 16 24 3 -6 310
-17 167 -22 192 -41 207 -32 27 -84 20 -123 -16z"/>
<path d="M5623 12273 c-20 -8 -15 -23 7 -23 11 0 20 7 20 15 0 15 -6 17 -27 8z"/>
<path d="M5568 12012 c-18 -11 -26 -23 -22 -34 3 -10 -4 -22 -18 -32 -19 -13
-23 -27 -26 -86 l-4 -70 70 0 c83 0 88 7 71 88 -6 29 -8 64 -5 77 7 29 -9 75
-26 74 -7 0 -25 -8 -40 -17z"/>
<path d="M10283 11603 c-43 -3 -51 -7 -46 -20 4 -11 2 -14 -5 -9 -7 4 -12 2
-12 -3 0 -6 -10 -11 -22 -12 l-23 0 23 -9 c30 -12 28 -30 -3 -30 -18 0 -25 -5
-25 -20 0 -11 -5 -20 -11 -20 -6 0 -9 7 -6 15 13 32 -16 24 -51 -15 -28 -30
-38 -50 -39 -76 -1 -19 -7 -41 -13 -49 -9 -11 -9 -15 -1 -15 6 0 11 -5 11 -11
0 -5 -4 -7 -10 -4 -5 3 -7 0 -4 -8 3 -8 -2 -22 -11 -31 -13 -13 -14 -20 -6
-30 9 -11 9 -15 -1 -19 -10 -4 -10 -8 2 -16 13 -10 13 -13 -3 -25 -11 -8 -14
-15 -7 -18 7 -2 8 -11 4 -22 -7 -19 -8 -19 -15 0 -7 17 -8 17 -8 -4 -1 -14 -5
-21 -12 -16 -6 3 -9 19 -6 34 7 31 -17 108 -27 91 -4 -6 -16 -11 -27 -11 -11
0 -17 -4 -14 -10 3 -5 0 -10 -7 -9 -27 1 -43 15 -44 39 -1 14 -5 38 -8 53 -4
15 -8 47 -9 70 -1 23 -6 45 -12 49 -6 4 -2 8 8 8 20 0 22 11 5 29 -10 11 -10
13 0 7 12 -7 16 4 13 32 -1 6 2 12 7 12 5 0 12 9 15 20 3 11 1 20 -4 20 -5 0
-9 -5 -9 -11 0 -5 -4 -8 -9 -5 -5 4 -11 0 -14 -6 -3 -10 -8 -9 -22 2 -17 14
-17 14 -5 -7 8 -12 19 -19 25 -15 5 3 4 -2 -4 -11 -7 -9 -22 -17 -32 -17 -21
0 -38 22 -21 28 17 5 15 32 -3 32 -8 0 -15 -6 -15 -12 0 -10 -3 -9 -9 1 -5 7
-14 12 -21 9 -9 -3 -8 -8 4 -20 18 -18 22 -33 6 -23 -5 3 -10 1 -10 -4 0 -6
-12 -11 -27 -11 -26 -1 -27 -2 -10 -14 18 -14 18 -14 0 -19 -16 -4 -16 -5 0
-6 21 -1 23 -21 1 -21 -10 0 -14 -5 -10 -15 5 -15 3 -23 -23 -73 -6 -13 -9
-27 -6 -32 4 -6 0 -10 -9 -10 -8 0 -16 -3 -19 -7 -2 -5 -2 -2 -1 5 2 6 -3 12
-11 12 -8 0 -18 6 -22 14 -4 7 -19 13 -32 12 -19 -1 -26 7 -38 39 -16 44 -25
94 -24 138 1 61 -94 58 -121 -4 -13 -30 -27 -36 -43 -20 -6 5 -20 5 -35 -2
-39 -16 -54 -17 -62 -4 -6 9 -10 9 -16 0 -4 -6 -20 -15 -36 -19 -20 -5 -24 -9
-14 -15 11 -8 11 -10 -1 -18 -8 -5 -15 -28 -16 -51 -1 -30 -9 -50 -28 -70 -15
-16 -27 -33 -27 -39 0 -7 -7 -14 -15 -17 -8 -4 -13 -10 -10 -14 3 -5 -4 -11
-15 -15 -20 -6 -29 -45 -10 -45 6 0 10 -9 10 -21 0 -11 5 -17 10 -14 6 3 10 1
10 -4 0 -6 -6 -11 -12 -11 -10 0 -10 -2 0 -9 7 -4 12 -12 11 -17 -2 -5 1 -24
5 -42 6 -24 12 -32 23 -28 19 8 47 -25 31 -36 -8 -4 -6 -12 5 -23 12 -11 15
-27 12 -55 -4 -26 0 -43 10 -54 17 -17 19 -33 5 -38 -6 -2 -13 -26 -16 -53
-12 -103 -5 -155 20 -155 16 1 48 48 37 54 -5 3 -8 34 -6 68 1 35 -2 68 -7 75
-14 18 1 93 18 93 11 0 12 4 4 19 -13 26 -13 28 5 35 27 10 42 -4 39 -37 -2
-39 -6 -147 -5 -164 1 -7 8 -13 16 -13 14 0 21 29 15 55 -2 6 -2 19 -2 30 1
11 -4 23 -11 27 -9 6 -9 8 0 8 7 0 12 15 11 38 0 22 3 50 8 63 4 13 9 29 9 34
6 32 20 54 40 63 20 9 23 9 18 -3 -3 -8 -11 -15 -19 -15 -15 0 -17 -14 -5 -44
6 -16 9 -17 16 -5 5 8 11 21 12 30 4 28 31 71 37 60 4 -5 2 -12 -3 -16 -7 -4
-7 -15 -1 -31 8 -19 6 -26 -6 -31 -12 -4 -13 -8 -3 -14 17 -10 22 -49 8 -65
-9 -11 -8 -14 0 -14 7 0 9 -5 5 -11 -3 -6 -19 -9 -35 -7 -37 6 -37 -7 -1 -24
19 -10 26 -20 23 -33 -2 -11 -4 -39 -5 -62 -1 -30 -4 -39 -13 -31 -9 7 -10 0
-7 -28 3 -21 10 -42 17 -46 9 -6 8 -10 -3 -18 -13 -8 -12 -10 3 -10 9 0 17 -4
17 -10 0 -5 9 -10 20 -10 11 0 20 4 20 10 0 6 29 9 70 7 42 -1 74 2 78 9 4 6
14 13 23 16 11 4 15 15 11 37 -3 20 0 31 7 31 7 0 10 -4 6 -10 -3 -5 0 -19 7
-30 11 -17 11 -22 -1 -29 -11 -7 -7 -14 20 -30 19 -12 44 -21 56 -21 16 0 23
-8 28 -31 5 -20 10 -27 15 -19 5 7 10 -1 14 -23 7 -39 33 -57 43 -29 4 9 17
31 30 48 13 17 23 36 23 41 0 6 6 13 13 16 7 3 12 19 11 41 -2 27 1 34 10 27
8 -7 11 3 11 40 0 33 -4 49 -12 49 -20 0 -15 17 6 23 13 3 20 18 25 53 4 27
13 58 21 68 8 11 15 32 15 48 0 15 4 28 9 28 5 0 7 25 5 55 -3 52 6 69 22 44
3 -6 1 -15 -6 -19 -7 -4 0 -10 20 -14 23 -4 31 -10 27 -21 -4 -8 -2 -17 4 -21
6 -3 8 -13 5 -21 -4 -10 -2 -13 7 -10 11 4 13 -2 11 -24 -2 -16 1 -29 6 -29 6
0 10 -13 10 -29 0 -32 15 -49 24 -29 6 15 0 -136 -9 -198 l-6 -41 77 -18 c66
-15 82 -16 113 -5 80 28 118 71 101 114 -6 17 -6 27 1 31 5 4 7 16 4 28 -5 17
-4 19 4 7 8 -11 11 -12 11 -2 0 16 19 36 43 45 14 5 16 2 13 -18 -4 -19 0 -25
14 -25 14 0 20 -9 23 -32 2 -18 5 83 5 225 1 166 -2 257 -8 257 -5 0 -10 -6
-10 -12 0 -9 -4 -8 -10 2 -5 8 -7 23 -4 32 4 12 0 15 -16 11 -11 -3 -20 -11
-20 -19 0 -8 -6 -11 -15 -8 -8 4 -15 15 -15 25 0 10 -4 19 -9 19 -4 0 -6 12
-4 28 4 21 2 24 -7 12 -8 -12 -9 -8 -4 15 8 32 26 55 43 55 6 0 11 5 11 11 0
6 -7 9 -15 5 -8 -3 -15 -1 -15 4 0 5 9 11 20 15 17 5 19 13 15 72 -2 36 -9 69
-15 73 -13 8 -69 9 -157 3z m191 -358 c-4 -8 -16 -15 -27 -15 -20 0 -20 0 -1
15 25 19 35 19 28 0z m-821 -112 c-7 -2 -21 -2 -30 0 -10 3 -4 5 12 5 17 0 24
-2 18 -5z m397 -3 c0 -5 -4 -10 -10 -10 -5 0 -10 5 -10 10 0 6 5 10 10 10 6 0
10 -4 10 -10z m396 -20 c13 0 24 -4 24 -10 0 -5 -11 -10 -25 -10 -14 0 -25 2
-25 4 0 2 -2 10 -3 18 -2 7 -2 10 0 6 3 -5 16 -8 29 -8z m-772 -8 c-24 -8 -24
-33 0 -58 17 -16 22 -39 7 -30 -5 3 -12 -1 -15 -10 -9 -24 -7 -36 5 -28 9 5
10 -1 5 -21 -5 -19 -3 -31 6 -36 10 -7 9 -9 -3 -9 -19 0 -32 -67 -14 -74 5 -2
3 -5 -5 -5 -8 -1 -21 8 -28 20 -8 12 -19 18 -28 15 -20 -8 -18 11 4 23 15 9
15 12 2 20 -9 7 -14 25 -13 53 1 38 1 40 -6 13 -6 -24 -9 -26 -14 -12 -17 42
-16 47 3 47 11 0 20 7 20 15 0 8 -5 15 -11 15 -8 0 -8 5 1 15 7 8 10 21 7 29
-8 21 2 26 52 25 30 -1 39 -3 25 -7z m401 -1 c3 -5 1 -12 -5 -16 -5 -3 -10 1
-10 9 0 18 6 21 15 7z m-720 -11 c-3 -5 -11 -10 -16 -10 -6 0 -7 5 -4 10 3 6
11 10 16 10 6 0 7 -4 4 -10z m1130 -57 c-9 -96 -13 -113 -30 -113 -8 0 -14 3
-14 8 5 28 -4 61 -21 80 -24 25 -25 32 -5 32 10 0 15 7 13 18 -2 12 3 16 20
15 13 -2 25 4 28 12 12 31 15 13 9 -52z m-78 35 c-3 -8 -6 -5 -6 6 -1 11 2 17
5 13 3 -3 4 -12 1 -19z m-1118 -15 c-9 -11 -10 -16 -1 -22 16 -10 11 -53 -6
-46 -7 3 -20 5 -28 5 -9 0 -14 11 -13 33 1 17 3 24 6 15 5 -20 31 -25 30 -5
-1 32 4 48 13 42 8 -5 7 -12 -1 -22z m821 6 c0 -6 -4 -7 -10 -4 -5 3 -10 11
-10 16 0 6 5 7 10 4 6 -3 10 -11 10 -16z m-540 -23 c0 -3 -4 -8 -10 -11 -5 -3
-10 -1 -10 4 0 6 5 11 10 11 6 0 10 -2 10 -4z m544 -5 c4 -5 -3 -7 -14 -4 -23
6 -26 13 -6 13 8 0 17 -4 20 -9z m346 -161 c0 -5 -2 -10 -4 -10 -3 0 -8 5 -11
10 -3 6 -1 10 4 10 6 0 11 -4 11 -10z m-835 -40 c-3 -5 -13 -10 -21 -10 -8 0
-12 5 -9 10 3 6 13 10 21 10 8 0 12 -4 9 -10z"/>
<path d="M8720 11508 c0 -8 7 -15 15 -15 18 0 15 19 -3 25 -7 2 -12 -3 -12
-10z"/>
<path d="M8256 11492 c-3 -6 -18 -8 -33 -6 -25 5 -25 4 -10 -19 10 -15 12 -28
6 -39 -6 -11 -5 -19 1 -23 8 -5 7 -11 -1 -21 -9 -11 -8 -14 5 -14 9 0 16 -4
16 -10 0 -5 -7 -10 -15 -10 -21 0 -19 -17 5 -30 11 -6 23 -22 26 -35 4 -18 13
-25 30 -25 14 0 27 -7 30 -15 8 -19 30 -19 38 0 4 11 11 12 28 6 18 -6 23 -15
21 -40 -1 -26 3 -32 24 -37 18 -5 21 -9 11 -15 -9 -6 -7 -9 9 -9 12 0 26 -7
31 -17 9 -14 10 -14 16 5 4 12 14 22 22 22 17 0 17 -5 4 -31 -7 -13 -7 -19 0
-19 5 0 10 5 10 10 0 6 9 2 21 -9 12 -11 18 -24 15 -29 -8 -14 12 -20 44 -13
l25 5 -25 8 c-19 6 -17 7 13 3 20 -2 37 0 37 6 0 5 -7 9 -15 9 -24 0 -17 18 8
22 15 2 21 9 19 21 -2 12 4 17 20 16 13 0 17 -3 11 -6 -19 -7 -16 -20 6 -26
14 -3 21 2 25 19 5 17 13 24 30 24 14 0 27 6 29 13 4 9 6 9 6 -1 1 -8 -9 -23
-21 -34 l-23 -20 22 5 c12 3 23 1 25 -4 5 -14 48 2 48 17 0 8 -5 14 -11 14 -5
0 -8 4 -5 9 4 5 0 12 -6 14 -10 4 -10 8 1 15 8 6 11 17 6 32 -7 21 -5 22 24
18 20 -3 36 1 45 11 19 21 28 63 17 80 -7 11 -12 10 -29 -5 -12 -10 -19 -21
-16 -26 3 -4 0 -8 -5 -8 -6 0 -11 7 -11 15 0 8 -7 15 -15 15 -9 0 -12 6 -9 15
4 8 2 15 -4 15 -6 0 -12 -6 -15 -12 -3 -10 -8 -10 -21 1 -9 8 -19 11 -23 7 -3
-3 -1 -6 5 -6 7 0 12 -7 12 -16 0 -29 -25 -8 -28 24 -2 18 -8 32 -13 32 -6 0
-6 7 1 19 14 28 13 30 -20 29 -19 -1 -30 -6 -30 -15 0 -8 5 -11 10 -8 6 3 10
0 10 -8 0 -17 -48 -29 -57 -14 -3 5 -1 7 5 3 24 -15 18 11 -9 37 -16 16 -29
23 -29 16 0 -7 -10 -2 -22 11 -20 21 -23 22 -26 7 -2 -9 -8 -17 -13 -17 -5 0
-7 -10 -4 -22 4 -18 -2 -28 -28 -44 -29 -19 -35 -20 -52 -8 -26 19 -52 17 -82
-6 -32 -25 -43 -25 -43 -1 0 32 -11 51 -30 51 -20 0 -36 16 -23 22 5 1 -4 16
-18 32 -16 16 -29 24 -33 18z m454 -143 c-7 -11 -14 -18 -17 -15 -8 8 5 36 17
36 7 0 7 -6 0 -21z m-164 -164 c-9 -9 -16 -13 -16 -8 0 12 22 34 28 28 2 -2
-3 -11 -12 -20z"/>
<path d="M7588 11483 c-22 -6 -51 -51 -44 -68 3 -9 0 -12 -10 -8 -7 3 -14 10
-14 17 0 6 -7 3 -14 -7 -8 -10 -20 -15 -30 -11 -10 4 -18 0 -22 -10 -3 -9 -12
-16 -20 -16 -8 0 -14 -7 -14 -15 0 -8 -7 -15 -16 -15 -10 0 -14 6 -10 15 3 8
1 15 -5 15 -6 0 -7 6 -4 13 4 6 -1 3 -9 -7 -9 -11 -16 -14 -16 -8 0 17 -16 15
-34 -4 -21 -21 -20 -46 3 -73 18 -21 40 -14 26 8 -3 5 0 13 6 17 7 4 9 3 6 -3
-4 -6 0 -14 9 -17 18 -7 37 1 30 13 -3 4 7 8 21 9 15 1 23 -1 19 -5 -9 -9 64
-44 77 -36 6 3 7 1 3 -5 -4 -7 -1 -12 8 -12 9 0 16 5 16 11 0 5 5 7 10 4 6 -3
10 -14 10 -24 0 -11 9 -21 21 -24 12 -3 18 -10 14 -16 -3 -6 -2 -11 3 -11 14
0 34 27 25 32 -4 3 -2 3 5 2 18 -5 62 17 56 27 -3 5 5 9 17 9 18 0 19 2 9 15
-8 9 -8 15 -2 15 6 0 19 -11 30 -25 20 -25 52 -34 52 -15 0 6 8 10 17 10 13 0
14 -3 5 -12 -18 -18 -14 -28 11 -28 26 1 57 22 57 39 0 7 10 11 22 9 18 -2 24
3 28 27 4 20 11 29 22 27 9 -1 18 4 22 13 3 9 0 15 -9 15 -20 0 -30 21 -14 31
14 8 13 9 -18 9 -5 0 -9 -4 -9 -10 -1 -5 -2 -13 -3 -17 0 -5 -10 7 -21 25 -28
46 -74 46 -160 2 -8 -4 -14 -18 -12 -31 l3 -24 -16 22 c-8 12 -12 28 -9 36 3
10 -3 20 -15 27 -16 8 -21 8 -21 -2 0 -7 -12 2 -26 20 -25 31 -32 34 -66 25z"/>
<path d="M8140 11463 c0 -12 -5 -25 -11 -29 -7 -4 -9 -23 -5 -53 4 -25 7 -54
7 -63 0 -19 16 -23 37 -9 11 7 11 9 -2 14 -9 4 -16 14 -16 24 0 14 2 15 9 5 6
-11 11 -10 25 3 18 19 20 31 6 40 -5 3 -19 25 -30 48 -14 31 -19 36 -20 20z"/>
<path d="M7360 11409 c0 -5 5 -7 10 -4 6 3 10 8 10 11 0 2 -4 4 -10 4 -5 0
-10 -5 -10 -11z"/>
<path d="M8870 11383 c0 -10 5 -25 10 -33 7 -11 10 -7 10 18 0 17 -4 32 -10
32 -5 0 -10 -8 -10 -17z"/>
<path d="M8900 11391 c0 -6 5 -13 10 -16 6 -3 10 1 10 9 0 9 -4 16 -10 16 -5
0 -10 -4 -10 -9z"/>
<path d="M280 11232 c1 -128 3 -153 13 -135 34 60 122 87 167 51 13 -11 32
-50 47 -95 13 -43 30 -81 36 -85 9 -5 8 -8 -3 -8 -12 -1 -11 -3 2 -11 14 -8
23 -5 40 12 28 26 129 93 143 94 6 1 27 5 48 9 73 16 148 -43 139 -109 -4 -26
-33 -107 -44 -121 -11 -15 -18 -154 -8 -154 11 0 18 -80 8 -86 -4 -3 -8 -13
-8 -23 0 -14 7 -17 40 -14 23 2 40 -1 40 -7 0 -6 9 -20 20 -32 11 -12 20 -16
20 -10 0 7 5 12 10 12 6 0 10 -8 10 -19 0 -10 7 -24 15 -31 8 -7 15 -25 15
-39 0 -17 12 -39 31 -59 17 -17 28 -36 24 -41 -6 -10 13 -51 29 -62 5 -4 6
-13 4 -20 -3 -8 -1 -22 4 -33 7 -13 7 -16 -1 -12 -14 9 -4 -48 16 -87 8 -15
16 -58 18 -95 4 -70 12 -102 25 -102 12 0 21 -61 11 -74 -14 -18 -19 -53 -10
-67 4 -8 3 -19 -4 -27 -8 -11 -7 -16 6 -23 9 -6 17 -17 17 -25 0 -8 5 -12 10
-9 8 5 7 11 -1 21 -8 10 -9 21 -2 37 11 24 10 126 -2 170 -5 20 -4 27 6 27 11
0 11 3 -1 10 -13 8 -13 10 2 10 13 0 16 10 16 53 0 49 6 112 17 167 13 62 13
70 4 75 -5 4 -7 10 -5 14 3 4 7 32 10 62 9 83 22 125 44 150 12 12 19 26 16
30 -2 4 1 11 6 14 7 4 8 19 5 36 -4 16 -3 29 2 29 10 0 13 23 13 92 0 35 5 50
19 60 14 10 20 29 22 71 2 32 0 59 -6 61 -6 2 -6 10 1 23 7 10 10 40 8 66 -3
40 -1 47 15 47 10 0 22 8 25 17 6 15 8 15 16 3 8 -12 10 -12 15 2 4 10 4 22 0
28 -3 5 1 10 9 10 9 0 16 4 16 9 0 5 10 12 23 15 21 7 21 7 2 16 -14 6 -16 9
-5 9 9 1 22 -5 29 -11 10 -11 15 -9 26 6 12 16 17 17 30 6 12 -10 16 -9 21 3
3 9 3 20 0 25 -3 6 1 12 9 16 8 3 12 11 9 19 -4 10 3 13 25 9 20 -3 28 -8 24
-18 -3 -9 2 -14 15 -14 29 0 53 -11 47 -21 -3 -4 4 -13 15 -19 18 -10 20 -8
20 20 0 28 2 30 15 16 8 -8 15 -19 15 -25 0 -6 5 -11 11 -11 7 0 9 -10 7 -25
-5 -23 -3 -24 26 -19 17 3 42 16 56 30 18 18 20 23 7 18 -17 -6 -17 -5 0 24
10 17 21 28 24 26 4 -2 11 10 15 28 l7 33 12 -35 c13 -39 51 -54 67 -26 5 9
16 16 23 16 8 0 16 3 16 8 6 33 5 53 -2 58 -16 10 11 44 34 43 l22 -2 -22 -4
c-26 -5 -31 -23 -7 -23 19 0 46 -25 37 -34 -13 -13 -11 -37 3 -43 8 -3 14 -18
14 -33 0 -15 7 -33 15 -40 9 -8 15 -9 15 -2 0 6 -4 14 -10 17 -5 3 -10 15 -10
26 0 14 4 18 13 12 19 -12 57 -15 57 -4 0 6 -7 8 -16 4 -12 -4 -15 -2 -12 8 3
8 14 13 25 11 20 -3 51 23 40 34 -3 3 -15 1 -26 -6 -17 -9 -21 -8 -21 6 0 11
5 14 16 10 12 -5 14 -1 8 17 -6 21 -6 21 14 -3 17 -20 23 -22 31 -11 6 10 13
11 30 2 26 -14 27 -21 2 -18 -11 1 -20 -2 -20 -8 0 -5 10 -9 22 -8 12 1 16 -1
10 -3 -7 -3 -13 -10 -13 -16 0 -6 8 -4 18 5 13 12 17 26 14 47 -3 22 -1 30 9
28 9 -2 13 5 11 21 -1 16 2 22 12 18 10 -4 12 0 9 14 -5 17 -14 19 -72 18 -36
-1 -72 -6 -78 -11 -9 -7 -13 -7 -13 1 0 6 -18 11 -45 11 -25 0 -45 -5 -45 -10
0 -6 -11 -8 -26 -4 -18 5 -25 3 -21 -3 4 -7 -3 -10 -18 -9 -20 1 -22 3 -11 12
11 7 -1 10 -45 10 -56 -1 -59 -2 -59 -26 l-1 -25 -13 25 -14 25 -166 0 c-91 0
-166 -4 -166 -9 0 -5 -7 -3 -14 4 -8 6 -25 10 -38 9 -13 -1 -57 1 -98 4 -41 4
-237 9 -434 12 -198 3 -362 8 -366 10 -4 2 -89 7 -188 9 l-182 6 0 -158z
m1060 -373 c0 -5 -4 -9 -10 -9 -5 0 -10 7 -10 16 0 8 5 12 10 9 6 -3 10 -10
10 -16z m20 -48 c0 -18 -33 -35 -44 -23 -6 6 24 40 37 41 4 1 7 -7 7 -18z
m-260 -71 c0 -5 -4 -10 -10 -10 -5 0 -10 5 -10 10 0 6 5 10 10 10 6 0 10 -4
10 -10z m-85 -60 c-3 -5 -12 -10 -18 -10 -7 0 -6 4 3 10 19 12 23 12 15 0z
m-95 -94 c0 -2 -7 -6 -15 -10 -8 -3 -15 -1 -15 4 0 6 7 10 15 10 8 0 15 -2 15
-4z"/>
<path d="M8820 11379 c0 -5 5 -7 10 -4 6 3 10 8 10 11 0 2 -4 4 -10 4 -5 0
-10 -5 -10 -11z"/>
<path d="M4145 11360 c-3 -5 -12 -7 -20 -4 -23 9 -46 -9 -34 -26 8 -11 12 -12
16 -2 2 6 16 12 29 12 15 0 24 6 24 15 0 17 -6 19 -15 5z"/>
<path d="M5678 11359 c-2 -6 -15 -13 -28 -14 -14 -1 -28 -3 -31 -4 -9 -1 -19
-41 -10 -39 19 2 22 -4 10 -18 -10 -12 -10 -17 0 -23 10 -6 9 -10 -3 -14 -9
-4 -16 -13 -16 -21 0 -17 33 -32 38 -17 7 20 30 11 36 -14 4 -14 12 -25 19
-25 16 0 49 38 42 50 -3 4 -1 10 4 12 5 1 12 17 16 33 5 23 4 26 -4 15 -11
-16 -14 -9 -12 30 2 18 -6 30 -28 43 -20 11 -31 13 -33 6z"/>
<path d="M2454 11340 c-5 -11 -8 -11 -11 -2 -7 17 -23 15 -23 -3 0 -8 7 -15
16 -15 12 0 15 -6 10 -25 -5 -20 -3 -25 13 -25 11 0 26 -7 35 -15 16 -16 41
-21 32 -6 -3 5 10 11 28 13 27 3 36 0 39 -14 3 -10 13 -18 22 -18 9 0 14 4 11
9 -4 5 -1 11 5 13 11 4 15 80 5 97 -9 14 -76 15 -76 1 0 -5 -7 -10 -15 -10 -8
0 -15 5 -15 10 0 17 -69 8 -76 -10z"/>
<path d="M2932 11351 c-10 -6 -9 -10 7 -14 14 -3 21 0 21 9 0 16 -9 18 -28 5z"/>
<path d="M4260 11350 c0 -5 5 -10 10 -10 6 0 10 5 10 10 0 6 -4 10 -10 10 -5
0 -10 -4 -10 -10z"/>
<path d="M4614 11333 c-4 -10 -8 -22 -8 -26 -1 -4 -8 -12 -16 -17 -12 -8 -9
-10 12 -10 17 0 28 6 31 18 4 16 5 16 6 0 0 -10 8 -18 16 -18 31 0 5 69 -26
70 -4 0 -10 -8 -15 -17z"/>
<path d="M5270 11339 c0 -9 -6 -22 -13 -28 -8 -6 -13 -27 -13 -47 1 -27 8 -39
26 -50 19 -10 21 -13 8 -14 -21 0 -24 -20 -4 -20 8 0 20 -2 28 -5 7 -3 27 7
43 22 22 21 30 38 31 66 1 20 -3 37 -8 37 -5 0 -6 5 -3 10 6 10 -14 15 -49 11
-10 0 -25 7 -32 16 -12 16 -13 16 -14 2z m87 -75 c-3 -3 -12 -4 -19 -1 -8 3
-5 6 6 6 11 1 17 -2 13 -5z"/>
<path d="M6514 11339 c-5 -8 -2 -10 8 -6 18 7 38 -11 37 -32 0 -11 -3 -10 -9
4 -5 11 -9 14 -9 8 -1 -7 -8 -13 -17 -13 -8 0 -12 5 -9 10 9 15 -4 12 -21 -4
-8 -8 -14 -25 -13 -38 l0 -23 9 23 c5 12 12 22 16 22 3 0 4 -6 1 -13 -3 -8 -1
-20 4 -28 6 -10 9 -8 9 10 0 20 2 22 15 11 17 -14 17 -15 32 21 6 14 8 30 5
36 -11 17 -50 25 -58 12z"/>
<path d="M6640 11333 c0 -7 -7 -13 -15 -13 -19 0 -19 -24 0 -54 11 -16 22 -22
35 -19 12 3 22 -1 26 -11 8 -20 24 -21 24 -1 0 23 19 18 30 -7 l9 -23 0 23 c1
29 30 27 46 -3 10 -19 11 -20 28 -3 9 10 14 18 10 18 -3 0 2 9 12 20 14 15 15
20 4 21 -8 0 -5 4 6 9 19 7 18 9 -7 19 -16 6 -28 16 -29 23 0 7 -4 3 -9 -9 -5
-13 -15 -23 -21 -23 -7 0 -18 -8 -25 -17 -10 -14 -12 -15 -12 -3 2 35 -3 50
-18 50 -8 0 -12 -4 -9 -10 3 -6 -1 -7 -10 -3 -13 5 -14 7 -3 14 7 5 11 9 8 9
-49 8 -80 5 -80 -7z m168 -88 c-3 -3 -9 2 -12 12 -6 14 -5 15 5 6 7 -7 10 -15
7 -18z"/>
<path d="M7010 11330 c0 -5 5 -10 11 -10 5 0 7 -4 4 -10 -3 -5 -15 -10 -26
-10 -10 0 -19 -4 -19 -10 0 -5 6 -7 14 -4 8 3 17 1 21 -5 18 -30 34 5 19 43
-7 18 -24 22 -24 6z"/>
<path d="M2894 11315 c-9 -21 -2 -26 13 -10 8 9 9 16 3 20 -6 3 -13 -1 -16
-10z"/>
<path d="M5820 11320 c0 -5 -11 -10 -24 -10 -24 0 -24 -1 -11 -27 8 -16 11
-31 5 -38 -14 -16 16 -48 40 -42 11 3 20 1 20 -4 0 -18 19 -9 25 12 4 13 2 25
-5 29 -7 4 -10 13 -6 19 4 6 1 21 -6 33 -7 13 -11 26 -10 31 1 4 -5 7 -13 7
-8 0 -15 -4 -15 -10z"/>
<path d="M2948 11313 c6 -2 18 -2 25 0 6 3 1 5 -13 5 -14 0 -19 -2 -12 -5z"/>
<path d="M6311 11304 c0 -11 3 -14 6 -6 3 7 2 16 -1 19 -3 4 -6 -2 -5 -13z"/>
<path d="M4941 11276 c1 -21 3 -25 6 -11 3 11 9 25 14 31 5 7 3 11 -6 11 -10
0 -15 -10 -14 -31z"/>
<path d="M2923 11293 c9 -2 23 -2 30 0 6 3 -1 5 -18 5 -16 0 -22 -2 -12 -5z"/>
<path d="M7968 11293 c7 -3 16 -2 19 1 4 3 -2 6 -13 5 -11 0 -14 -3 -6 -6z"/>
<path d="M5016 11275 c-3 -8 -1 -15 4 -15 6 0 10 7 10 15 0 8 -2 15 -4 15 -2
0 -6 -7 -10 -15z"/>
<path d="M5120 11282 c0 -6 -8 -12 -17 -15 -15 -3 -13 -6 9 -17 21 -10 31 -10
42 -1 10 9 16 9 21 1 4 -7 -2 -14 -14 -17 -12 -3 -21 -12 -21 -19 0 -21 23
-17 38 6 7 12 18 18 24 14 7 -5 8 -3 4 5 -5 7 0 18 10 26 17 12 15 13 -21 12
-22 0 -48 3 -57 7 -11 5 -18 4 -18 -2z"/>
<path d="M4960 11262 c0 -12 4 -22 9 -22 10 0 9 26 -2 36 -4 4 -7 -2 -7 -14z"/>
<path d="M6290 11270 c0 -5 5 -10 10 -10 6 0 10 5 10 10 0 6 -4 10 -10 10 -5
0 -10 -4 -10 -10z"/>
<path d="M8286 11241 c-3 -4 3 -16 14 -26 12 -10 20 -13 20 -7 0 7 -5 12 -11
12 -6 0 -9 7 -5 15 6 16 -9 21 -18 6z"/>
<path d="M2040 11150 c0 -5 7 -10 16 -10 8 0 12 5 9 10 -3 6 -10 10 -16 10 -5
0 -9 -4 -9 -10z"/>
<path d="M5535 11052 c-27 -10 -60 -23 -72 -30 -12 -6 -41 -12 -64 -12 -24 0
-79 -13 -123 -29 -45 -16 -116 -37 -160 -47 -43 -10 -84 -24 -92 -31 -7 -7
-19 -13 -27 -13 -8 0 -17 -9 -20 -20 -4 -15 -14 -20 -41 -20 -19 0 -39 -6 -43
-14 -4 -7 -35 -21 -68 -31 -75 -21 -125 -47 -163 -82 -32 -30 -51 -73 -32 -73
17 0 -6 -37 -64 -103 -28 -32 -50 -63 -48 -68 1 -5 -9 -26 -23 -47 -14 -20
-25 -42 -25 -49 0 -6 -16 -39 -35 -72 -19 -32 -35 -63 -35 -67 0 -4 -11 -22
-25 -40 -30 -40 -31 -44 -4 -44 20 0 21 -4 16 -42 -5 -48 4 -154 26 -303 9
-55 17 -145 19 -201 l3 -100 -32 0 c-51 0 -63 -17 -63 -96 0 -44 4 -67 10 -63
6 4 10 -6 10 -24 0 -16 -5 -33 -10 -36 -7 -4 -9 3 -5 22 5 28 5 28 -6 3 -15
-35 -6 -105 21 -168 12 -29 24 -51 27 -49 2 2 -6 26 -17 53 -25 58 -38 130
-21 120 6 -4 11 -14 11 -21 0 -8 12 -45 26 -82 28 -73 47 -118 40 -92 -2 9 -8
37 -11 63 -8 53 4 59 52 29 25 -16 28 -24 31 -83 2 -36 5 -78 8 -93 6 -27 4
-28 -15 -18 -12 7 -21 16 -21 21 0 6 -4 10 -10 10 -12 0 -2 -29 17 -52 13 -14
12 -18 -5 -27 -19 -10 -22 -5 -42 55 -12 36 -24 64 -26 62 -1 -2 9 -42 24 -88
16 -52 28 -77 30 -64 3 21 38 40 46 26 6 -12 17 -132 12 -132 -3 0 -14 10 -26
22 -11 12 -20 19 -20 15 0 -4 16 -24 35 -46 30 -33 37 -49 45 -112 5 -41 23
-116 40 -168 16 -52 30 -99 30 -105 0 -6 17 -41 39 -78 l39 -66 -67 -12 c-111
-21 -163 -63 -198 -162 -28 -76 -10 -247 38 -363 13 -33 29 -135 29 -191 0
-48 -2 -53 -29 -64 -30 -12 -111 -100 -111 -119 0 -6 -5 -11 -11 -11 -5 0 -8
-4 -4 -10 3 -5 -3 -18 -15 -30 -11 -11 -17 -20 -14 -20 3 0 -1 -7 -10 -15 -12
-13 -98 -27 -158 -26 -10 0 -20 -4 -23 -9 -3 -5 -12 -7 -19 -4 -8 3 -17 0 -22
-7 -4 -8 -3 -10 5 -5 6 4 18 0 27 -9 9 -9 21 -14 26 -13 5 2 25 -10 43 -27 18
-17 48 -39 66 -48 19 -9 28 -17 20 -17 -26 0 -105 -43 -152 -82 -50 -41 -66
-76 -49 -108 9 -17 7 -22 -17 -31 -15 -6 -55 -13 -88 -16 -71 -6 -106 6 -205
72 -124 82 -130 84 -335 77 -99 -3 -229 -5 -290 -4 -156 4 -176 -6 -275 -125
-70 -85 -79 -102 -89 -155 -9 -50 -7 -68 10 -125 17 -54 19 -74 10 -102 -5
-20 -13 -58 -17 -86 -8 -66 -32 -125 -61 -152 -13 -13 -19 -23 -14 -23 6 0 11
-6 11 -13 0 -7 13 -23 29 -35 41 -30 50 -76 20 -108 -12 -13 -28 -24 -36 -24
-7 0 -13 -4 -13 -10 0 -14 -30 -12 -35 3 -2 6 -9 49 -14 94 -20 160 -130 321
-266 388 -85 42 -110 71 -126 143 -8 41 -20 59 -60 97 -62 58 -92 70 -245 100
-88 18 -141 34 -180 56 l-56 31 -62 -20 c-33 -11 -86 -23 -116 -27 -148 -16
-279 -53 -265 -75 13 -21 -15 -18 -36 5 -13 13 -28 25 -34 25 -5 0 -23 14 -38
29 -16 16 -42 35 -58 41 -16 7 -27 15 -25 19 3 4 -80 7 -183 8 -148 1 -195 4
-226 17 -47 20 -84 14 -145 -24 -25 -15 -73 -38 -107 -51 -67 -26 -71 -32 -92
-122 -7 -27 -24 -67 -39 -89 l-27 -42 -3 -625 c-2 -344 0 -641 3 -659 4 -23
17 -40 44 -58 21 -13 44 -37 52 -52 20 -40 60 -92 71 -92 9 0 22 10 56 40 20
18 79 52 177 104 39 21 110 62 160 92 49 29 119 65 155 79 52 21 72 35 99 71
18 25 34 53 35 61 1 8 7 18 14 22 6 3 15 26 21 50 5 24 16 50 24 59 14 13 18
12 39 -9 13 -13 30 -34 39 -46 18 -26 92 -46 108 -30 7 7 17 7 33 -2 l23 -12
-22 5 c-13 2 -23 -1 -23 -6 0 -6 12 -8 29 -5 19 4 31 2 35 -6 2 -7 5 -4 5 6 1
9 -6 17 -14 17 -8 0 -15 7 -15 15 0 8 4 15 9 15 5 0 8 28 7 63 -2 55 -7 68
-39 110 -20 27 -37 58 -37 70 0 65 129 210 196 223 94 17 198 -28 247 -108 8
-13 20 -59 27 -102 13 -74 12 -80 -5 -93 -13 -9 -33 -11 -58 -8 -29 5 -37 3
-31 -6 4 -8 3 -10 -4 -5 -6 4 -25 0 -41 -9 -17 -8 -39 -15 -51 -15 -12 0 -28
-12 -39 -32 -31 -53 -85 -117 -100 -117 -26 -2 -61 -54 -61 -93 0 -20 -5 -40
-10 -43 -6 -4 -8 -11 -4 -16 9 -16 -16 -39 -44 -39 -38 0 -122 -58 -137 -94
-7 -17 -11 -49 -9 -71 4 -48 31 -72 94 -81 85 -13 167 -65 154 -98 -9 -24 -58
-43 -101 -39 -34 4 -42 2 -45 -14 -4 -19 13 -87 25 -99 4 -4 7 -13 7 -20 0 -7
14 -33 30 -57 17 -25 30 -52 30 -61 0 -18 15 -22 25 -6 7 12 36 2 54 -19 10
-12 15 -13 18 -4 3 9 10 10 23 3 11 -6 23 -10 27 -9 4 1 10 1 13 -1 3 -1 18
-3 35 -5 21 -3 26 -2 15 5 -8 5 -13 10 -10 11 3 0 14 2 25 5 11 2 50 7 87 10
64 5 67 4 70 -18 4 -26 -40 -78 -66 -78 -8 0 -18 -10 -21 -21 -6 -17 -9 -19
-16 -8 -5 8 -9 9 -9 4 0 -6 -10 -16 -21 -24 -19 -11 -21 -11 -16 3 4 10 1 13
-9 9 -7 -3 -14 -9 -14 -14 0 -5 -7 -9 -15 -9 -8 0 -15 -4 -15 -10 0 -5 5 -10
10 -10 6 0 10 -9 10 -19 0 -11 6 -22 13 -24 7 -3 5 -6 -5 -6 -25 -1 -22 -18 3
-24 16 -4 38 7 80 39 33 25 59 50 59 55 0 6 4 8 9 5 5 -3 21 4 36 16 21 16 29
18 35 8 6 -10 9 -9 13 1 3 8 6 2 6 -13 1 -16 -3 -28 -9 -28 -14 0 -13 -27 1
-32 18 -6 -48 -95 -81 -110 -17 -7 -30 -16 -30 -20 0 -5 -6 -8 -13 -8 -7 0
-20 -8 -28 -17 -33 -37 -57 -50 -98 -56 -28 -3 -48 -13 -58 -26 -8 -12 -23
-21 -34 -21 -11 0 -19 -7 -19 -16 0 -8 -5 -12 -10 -9 -6 4 -18 1 -26 -6 -13
-10 -17 -10 -24 0 -6 11 -11 9 -19 -8 -7 -11 -19 -21 -28 -21 -13 0 -14 3 -5
12 16 16 15 45 -2 51 -8 3 -22 -3 -31 -13 -10 -11 -22 -17 -28 -13 -6 3 -7 1
-3 -5 4 -6 12 -10 19 -8 7 1 9 1 4 -1 -4 -3 -5 -9 -1 -14 3 -5 2 -9 -3 -8 -19
3 -27 -2 -14 -10 25 -16 1 -33 -40 -28 -25 3 -39 0 -39 -7 0 -6 -7 -2 -15 8
-8 11 -15 14 -15 8 0 -7 -5 -12 -11 -12 -6 0 -8 7 -5 16 3 8 2 12 -3 9 -5 -3
-13 0 -16 6 -4 5 -14 8 -22 5 -11 -5 -13 -2 -9 10 3 8 1 25 -6 37 -13 23 -12
55 2 72 5 6 5 17 0 25 -15 23 -12 27 16 24 19 -2 24 1 20 12 -6 17 3 46 13 40
4 -3 8 6 9 20 1 13 -3 24 -9 24 -5 0 -7 -5 -4 -10 7 -11 -18 -41 -32 -39 -21
4 -33 -2 -33 -17 0 -8 -5 -12 -10 -9 -6 4 -2 19 12 38 13 18 22 34 21 37 -1 3
5 4 13 2 8 -2 14 5 14 16 0 10 5 23 10 28 6 6 12 21 15 34 2 12 12 42 21 67 9
24 15 45 12 48 -7 7 -253 -22 -341 -40 -112 -24 -147 -45 -258 -156 -64 -64
-81 -88 -104 -150 -16 -41 -37 -83 -46 -93 -16 -17 -21 -18 -43 -7 -13 8 -31
32 -40 55 -18 46 -121 160 -136 151 -13 -8 -14 -4164 0 -4199 5 -14 18 -29 28
-35 14 -7 579 -11 1768 -11 962 0 1770 0 1797 0 l48 0 -5 83 c-3 46 -10 123
-17 170 -10 74 -10 102 5 194 17 105 65 265 94 310 10 17 15 65 17 175 2 84 7
163 12 176 9 23 9 23 31 4 12 -11 22 -25 22 -32 0 -7 3 -11 6 -7 3 3 -8 53
-26 111 -31 102 -31 105 -14 132 10 15 32 35 48 45 l30 18 23 -31 c13 -18 23
-38 23 -45 0 -7 5 -13 10 -13 14 0 13 5 -15 60 -39 78 -33 91 54 105 30 5 45
13 48 26 4 14 29 26 92 45 47 14 190 62 317 105 127 43 235 79 239 79 5 0 31
15 59 34 92 63 264 104 508 122 l87 7 31 63 c30 62 32 64 70 64 26 0 48 -8 67
-24 15 -13 51 -35 78 -48 53 -27 204 -72 213 -64 2 3 21 -1 40 -10 36 -15 187
-26 222 -17 11 3 17 9 14 14 -3 5 11 9 30 9 22 0 36 -5 36 -12 1 -26 29 -49
66 -55 49 -8 59 -19 59 -66 0 -22 3 -41 7 -43 3 -2 4 -13 1 -24 -3 -12 0 -20
7 -20 10 0 10 -3 0 -15 -10 -12 -10 -18 -1 -29 9 -10 9 -16 1 -21 -8 -5 -8
-10 0 -20 8 -9 8 -15 0 -20 -6 -3 -7 -11 -4 -17 4 -6 8 -41 10 -77 1 -36 3
-66 4 -66 2 0 11 -84 14 -130 2 -22 4 -40 5 -40 2 0 4 -18 6 -40 6 -87 32
-272 40 -285 2 -3 6 -30 10 -60 3 -30 10 -71 15 -91 10 -36 16 -87 25 -204 3
-33 7 -77 9 -97 3 -29 0 -38 -11 -38 -9 0 -13 -6 -10 -14 3 -7 0 -19 -6 -26
-9 -10 -8 -12 5 -7 25 9 32 -7 42 -93 2 -14 5 -27 6 -30 1 -3 2 -8 1 -13 0 -4
8 -48 19 -98 11 -50 18 -95 15 -100 -10 -16 3757 -14 3787 2 10 6 23 21 28 35
11 27 14 2891 4 2917 -5 14 -10 14 -41 0 -44 -18 -77 -11 -114 27 -35 34 -37
74 -8 109 28 34 75 33 120 -2 20 -15 39 -24 42 -20 10 9 8 3611 -1 3617 -5 3
-20 -1 -34 -8 -14 -8 -57 -23 -95 -35 -39 -12 -85 -33 -103 -46 -19 -14 -54
-32 -79 -42 -63 -23 -68 -28 -103 -97 -17 -34 -47 -83 -68 -111 -41 -56 -54
-85 -70 -164 -14 -74 -42 -111 -84 -111 -18 0 -36 3 -40 8 -4 4 -11 7 -14 7
-40 3 -59 26 -54 66 6 46 -3 280 -12 307 -5 15 -3 22 6 22 8 0 9 3 3 8 -5 4
-11 16 -13 27 -8 58 -15 81 -28 88 -8 5 -12 12 -10 16 3 4 -5 19 -17 32 -12
13 -23 27 -23 31 -1 5 -2 13 -3 19 0 5 -5 7 -11 4 -17 -11 -12 77 7 97 13 14
13 18 2 18 -8 0 1 8 19 16 17 9 32 20 32 25 0 5 9 18 20 29 11 11 20 27 20 36
0 10 6 14 15 10 8 -3 15 0 16 7 0 7 2 22 5 35 2 12 -1 22 -7 22 -8 0 -8 4 0
13 6 8 8 16 6 19 -3 3 -8 36 -11 74 -3 38 -10 71 -15 72 -5 2 -9 10 -9 18 0 9
5 12 10 9 6 -3 10 -1 10 4 0 6 -8 11 -17 11 -15 0 -16 2 -3 10 9 6 10 10 3 10
-6 0 -12 8 -11 18 0 30 -10 100 -16 111 -4 5 -14 9 -24 9 -35 -1 -67 21 -86
58 -10 22 -23 48 -28 58 -6 11 -12 62 -15 115 -2 53 -6 107 -8 121 -2 14 -4
40 -4 58 -1 24 -11 42 -40 70 -56 54 -139 75 -270 70 -56 -2 -101 0 -101 4 0
5 -6 8 -14 8 -7 0 -25 11 -39 25 -24 25 -27 25 -89 15 -34 -5 -99 -10 -143
-10 -72 0 -88 -3 -158 -37 -42 -21 -79 -45 -82 -53 -3 -8 -18 -21 -35 -28 -27
-12 -32 -11 -52 10 -30 30 -66 50 -78 43 -6 -3 -21 2 -34 12 -18 13 -23 24
-19 42 4 17 2 22 -8 19 -8 -3 -14 -17 -14 -31 1 -22 -3 -26 -20 -22 -11 3 -15
2 -9 0 7 -4 9 -22 4 -53 -3 -26 -5 -69 -4 -97 1 -27 0 -64 -3 -82 -6 -38 -38
-80 -48 -63 -3 6 -10 8 -15 5 -12 -8 -90 16 -90 27 0 4 -6 8 -12 8 -7 0 -42
20 -77 45 -36 25 -73 45 -82 45 -10 0 -43 11 -74 25 -30 14 -69 28 -86 32 -31
6 -94 62 -104 92 -5 16 -48 41 -70 41 -13 0 -85 -67 -85 -79 0 -4 -12 -14 -27
-22 -15 -8 -35 -21 -44 -30 -9 -10 -49 -22 -90 -28 -41 -7 -99 -23 -129 -36
-30 -13 -76 -33 -102 -44 -33 -14 -57 -34 -82 -69 -48 -66 -109 -107 -161
-106 -38 0 -62 9 -150 56 -25 14 -56 21 -82 21 -27 -1 -43 3 -44 10 0 7 -2 44
-3 82 -4 105 -43 208 -108 283 -15 18 -28 34 -28 36 0 2 5 28 11 57 13 67 12
202 -3 249 -29 96 -43 123 -78 161 l-38 41 -32 -36 c-20 -22 -41 -36 -55 -36
-36 0 -40 18 -11 45 14 13 26 28 26 32 0 5 10 13 22 18 13 6 24 19 26 29 2 10
13 28 24 40 24 25 40 56 81 150 27 65 30 83 34 209 5 134 4 138 -19 157 -12
11 -38 19 -55 20 -38 0 -40 10 -19 86 8 27 17 74 20 104 8 61 36 160 46 160 4
0 7 18 8 41 1 22 5 46 9 52 4 7 15 53 24 104 14 86 14 94 -2 128 -10 21 -22
42 -28 49 -5 6 -18 28 -29 48 -18 32 -19 38 -6 49 8 6 13 17 11 23 -2 5 12 41
30 78 18 38 33 83 33 101 0 22 3 28 9 18 6 -10 11 -5 16 18 4 18 4 35 1 38 -3
4 -6 -2 -7 -13 0 -15 -2 -14 -10 6 -7 16 -7 26 0 28 13 4 3 31 -26 65 -13 16
-23 33 -23 39 0 6 -13 26 -30 45 -16 18 -30 41 -30 51 0 15 -2 15 -10 2 -9
-13 -12 -13 -21 3 -5 9 -20 17 -32 17 -12 0 -39 11 -59 25 -26 17 -36 21 -32
10 7 -17 -13 -13 -51 11 -11 6 -32 14 -47 18 -18 4 -28 13 -28 25 0 17 -29 51
-44 51 -4 0 -16 -10 -27 -22 -15 -19 -20 -20 -28 -9 -5 7 -13 11 -19 7 -15 -9
-115 24 -133 45 -9 10 -19 16 -21 13 -3 -2 -58 23 -123 56 -111 56 -123 60
-184 59 -36 0 -88 -8 -116 -17z m985 -832 c0 -5 -2 -10 -4 -10 -3 0 -8 5 -11
10 -3 6 -1 10 4 10 6 0 11 -4 11 -10z m-1136 -166 c17 -7 22 -34 7 -34 -5 0
-22 5 -38 11 -22 8 -24 12 -13 19 18 11 23 12 44 4z m-159 -34 c3 -5 1 -10 -4
-10 -6 0 -11 5 -11 10 0 6 2 10 4 10 3 0 8 -4 11 -10z m70 0 c3 -5 1 -10 -4
-10 -6 0 -11 5 -11 10 0 6 2 10 4 10 3 0 8 -4 11 -10z m45 -10 c0 -5 -4 -10
-9 -10 -6 0 -13 5 -16 10 -3 6 1 10 9 10 9 0 16 -4 16 -10z m-127 -14 c3 3 8
1 12 -5 3 -6 -1 -11 -9 -11 -9 0 -16 -4 -16 -10 0 -6 18 -7 46 -3 37 5 48 3
56 -10 4 -9 15 -14 23 -11 9 4 15 0 15 -9 0 -8 7 -17 15 -21 8 -3 15 -2 15 3
0 4 15 7 33 6 17 -2 40 2 51 7 13 7 16 7 12 -1 -4 -6 0 -11 8 -11 9 0 16 -4
16 -10 0 -5 7 -7 15 -4 8 4 23 3 33 -1 9 -5 28 -10 42 -12 14 -2 27 -8 28 -14
2 -5 10 -9 17 -9 22 0 75 34 75 49 0 11 3 11 15 1 8 -7 15 -8 15 -3 0 5 34 8
78 6 42 -2 89 -3 105 -3 15 0 27 -5 27 -11 0 -6 7 -9 15 -5 20 7 195 -82 195
-99 0 -8 14 -24 30 -37 17 -12 30 -27 30 -34 0 -7 11 -21 25 -32 25 -20 37
-57 69 -212 17 -80 37 -272 32 -305 -7 -48 -19 -85 -28 -85 -5 0 -8 -15 -7
-33 2 -19 -6 -50 -19 -76 -12 -23 -23 -54 -24 -68 -2 -14 -8 -28 -15 -30 -7
-3 -13 -14 -13 -24 0 -10 -7 -19 -15 -19 -8 0 -15 -7 -15 -15 0 -8 -6 -15 -13
-15 -13 0 -28 -24 -41 -64 -4 -10 -9 -16 -12 -13 -4 3 -18 -5 -32 -19 -15 -13
-30 -24 -34 -24 -5 0 -8 -7 -8 -15 0 -8 -4 -15 -10 -15 -5 0 -17 -8 -27 -19
-25 -25 -60 -33 -67 -14 -4 9 -14 13 -25 10 -11 -3 -22 1 -25 9 -3 7 -11 11
-19 8 -10 -3 -14 4 -15 26 0 16 -3 39 -7 49 -3 11 -1 22 4 26 7 3 8 0 5 -10
-5 -11 -2 -14 10 -9 9 3 16 13 16 21 0 8 8 13 18 11 46 -7 56 42 20 101 -12
20 -27 41 -33 46 -23 22 -73 37 -143 41 l-75 4 26 -24 c17 -16 25 -32 23 -50
-2 -14 1 -26 7 -26 6 0 8 -2 5 -5 -3 -3 -18 1 -34 10 -16 8 -39 15 -51 15 -13
0 -23 4 -23 10 0 5 -29 24 -65 41 -36 17 -67 35 -70 39 -5 8 43 18 115 24 19
1 40 3 46 4 13 2 2 79 -16 113 -6 11 -13 30 -15 41 -9 47 -14 27 -8 -34 6 -71
-5 -92 -35 -65 -9 8 -37 25 -62 37 -25 13 -48 27 -51 33 -6 9 -73 11 -179 5
-28 -2 -56 -11 -73 -24 -15 -12 -47 -28 -72 -35 -39 -12 -45 -17 -40 -34 25
-75 10 -98 -88 -145 -37 -17 -76 -43 -87 -58 -20 -25 -53 -33 -77 -19 -6 4
-16 -5 -23 -22 -8 -20 -18 -28 -35 -28 -13 0 -23 4 -22 10 1 6 -8 16 -20 21
-15 7 -23 23 -28 55 -4 24 -13 54 -20 65 -7 12 -16 40 -20 63 -4 24 -11 46
-16 49 -6 4 -6 10 0 18 12 14 3 58 -10 50 -5 -3 -9 10 -10 28 0 18 -3 42 -5
53 -13 52 4 125 28 125 9 0 9 3 -2 9 -8 6 -18 7 -22 5 -5 -3 -7 16 -5 42 3 45
5 49 34 55 25 5 36 2 53 -16 11 -12 18 -24 15 -27 -9 -9 40 -36 79 -43 35 -7
61 -25 35 -25 -27 0 0 -10 41 -15 24 -3 46 -7 47 -9 2 -2 -11 -11 -29 -20 -22
-12 -26 -16 -10 -13 15 4 22 0 22 -9 0 -12 8 -10 39 6 22 11 42 16 45 11 3 -4
17 -6 31 -3 20 3 25 10 25 33 0 22 5 29 20 29 11 0 20 4 20 8 0 5 7 9 15 9 8
0 15 -9 15 -21 1 -21 1 -21 12 -1 7 11 16 25 22 31 6 7 24 28 40 48 16 20 37
35 45 34 9 -2 16 4 16 12 1 8 7 13 15 11 43 -12 86 -5 112 18 26 22 26 25 11
47 -19 30 -16 34 33 37 l39 2 0 -45 c0 -30 7 -54 20 -70 23 -29 159 -130 175
-130 6 0 13 -7 16 -15 4 -8 11 -15 18 -15 6 0 35 -11 64 -25 28 -13 52 -20 52
-15 0 5 15 6 33 3 24 -3 39 0 50 12 23 23 21 35 -5 36 l-23 0 22 11 c29 14 35
52 11 67 -15 9 -16 15 -8 31 10 18 7 20 -25 20 -38 0 -44 13 -20 44 14 18 16
18 33 3 10 -9 24 -17 30 -17 7 0 12 -5 12 -11 0 -7 10 -9 25 -5 15 4 37 -1 60
-14 47 -26 59 -25 73 5 16 34 -6 86 -53 132 -42 41 -58 70 -51 90 4 9 1 22 -5
29 -18 22 27 18 59 -4 43 -30 50 -33 56 -23 10 16 -35 61 -102 100 -58 35 -77
41 -147 46 -44 3 -100 8 -125 11 -76 9 -151 8 -158 -3 -8 -12 -99 -53 -118
-53 -7 0 -26 -12 -41 -26 -23 -21 -35 -25 -68 -21 -64 8 -98 19 -124 38 -13
11 -33 19 -45 19 -12 0 -26 4 -31 9 -6 5 -24 11 -40 14 -17 2 -54 14 -82 27
-28 12 -68 23 -89 25 -22 1 -41 4 -44 5 -3 1 -8 2 -12 1 -5 0 -8 3 -8 8 0 17
52 51 76 51 13 0 24 4 24 9 0 5 13 11 29 14 16 3 35 13 44 21 8 8 28 18 43 22
16 4 31 10 34 13 14 17 47 28 61 20 9 -4 19 -6 22 -3z m-253 -406 c0 -5 -4
-10 -10 -10 -5 0 -10 5 -10 10 0 6 5 10 10 10 6 0 10 -4 10 -10z m418 -12 c20
-20 13 -27 -19 -18 -27 8 -31 7 -27 -8 5 -20 -25 -53 -39 -43 -14 9 -22 36
-14 49 8 13 48 30 72 31 8 1 20 -4 27 -11z m605 -60 c21 -25 16 -33 -10 -19
-66 35 -92 54 -88 61 8 12 77 -17 98 -42z m-998 22 c3 -5 1 -10 -4 -10 -6 0
-11 5 -11 10 0 6 2 10 4 10 3 0 8 -4 11 -10z m115 -46 c0 -8 -4 -14 -9 -14 -5
0 -17 -3 -25 -6 -12 -5 -15 -2 -11 10 3 9 7 23 10 32 4 13 8 14 20 4 8 -7 15
-19 15 -26z m630 3 c0 -12 7 -33 16 -45 18 -26 14 -26 -46 -8 -53 16 -61 35
-23 58 38 24 53 22 53 -5z m-811 -16 c28 -39 27 -43 -16 -39 -41 3 -55 27 -33
53 18 21 26 19 49 -14z m251 -25 c0 -12 -13 -36 -20 -36 -4 0 -10 9 -13 20 -4
15 0 20 14 20 10 0 19 -2 19 -4z m540 -36 c0 -5 -2 -10 -4 -10 -3 0 -8 5 -11
10 -3 6 -1 10 4 10 6 0 11 -4 11 -10z m-621 -56 c-17 -21 -31 -17 -19 6 6 11
15 18 21 14 6 -4 6 -11 -2 -20z m-622 -26 c22 -25 47 -68 41 -73 -2 -1 -19
-10 -38 -20 -19 -10 -42 -24 -51 -32 -15 -12 -18 -9 -28 31 -15 60 -14 81 5
97 13 10 17 10 25 -2 7 -11 9 -11 9 4 0 23 12 22 37 -5z m2030 -109 c7 -35 12
-89 11 -119 l0 -55 -8 48 c-10 54 -24 77 -50 77 -29 0 -50 11 -50 27 0 20 61
94 74 90 6 -2 16 -33 23 -68z m-31 -257 c-16 -31 -34 -48 -41 -40 -3 2 7 21
22 41 31 43 41 42 19 -1z m-71 -61 c3 -5 1 -13 -5 -16 -6 -4 -8 -15 -5 -26 8
-23 -10 -26 -19 -3 -11 28 -6 54 8 54 8 0 17 -4 21 -9z m-1565 -201 c0 -5 -5
-10 -11 -10 -5 0 -7 5 -4 10 3 6 8 10 11 10 2 0 4 -4 4 -10z m757 -20 c23 -13
42 -18 63 -14 25 5 31 3 39 -17 5 -13 25 -32 44 -43 23 -12 38 -28 42 -45 11
-54 13 -91 4 -91 -5 0 -7 -11 -3 -24 3 -14 -3 -44 -17 -75 -18 -44 -24 -50
-37 -39 -13 11 -15 10 -10 -9 4 -15 0 -23 -13 -26 -12 -3 -17 -1 -12 6 4 6 0
8 -10 4 -8 -3 -21 0 -27 8 -6 8 -17 12 -25 9 -7 -3 -16 -1 -20 5 -3 6 -16 11
-29 11 -12 0 -31 8 -42 18 -33 31 -93 64 -104 57 -5 -3 -10 -2 -10 4 0 14 38
33 50 26 5 -3 28 -7 50 -8 36 -2 40 0 45 25 4 15 3 33 -1 39 -5 8 -2 10 8 6
14 -5 15 -1 7 26 -8 29 -31 51 -54 52 -5 0 -10 18 -10 40 0 34 -3 40 -22 43
-34 5 -28 20 10 25 17 2 37 5 42 5 6 1 25 -7 42 -18z m-346 -76 c5 -3 9 -12 9
-20 0 -8 -4 -13 -9 -9 -12 7 -61 -15 -61 -28 0 -6 -3 -7 -6 -4 -9 8 -44 -11
-44 -24 0 -6 9 -8 20 -4 11 4 20 3 19 -2 -4 -22 3 -33 21 -33 11 0 23 -7 26
-15 4 -10 15 -12 35 -8 17 3 35 0 44 -7 8 -7 15 -8 15 -2 0 5 9 12 20 15 17 4
20 2 15 -14 -6 -18 7 -25 37 -20 4 0 10 -10 14 -24 3 -14 10 -25 15 -25 5 0 9
-8 9 -17 -1 -17 -1 -17 -11 0 -12 21 -32 22 -49 2 -9 -10 -17 -12 -30 -5 -10
5 -20 6 -22 1 -2 -5 -14 -4 -28 2 -19 8 -21 11 -9 14 20 5 33 45 17 54 -14 9
-76 -56 -84 -87 -3 -13 -10 -21 -16 -18 -5 3 -7 12 -4 20 7 19 -7 17 -32 -4
-22 -19 -82 -19 -82 0 0 5 -4 6 -10 3 -6 -3 -7 1 -4 9 4 10 1 16 -9 16 -9 0
-19 5 -23 12 -5 7 -3 8 5 3 9 -5 12 -1 10 11 -2 11 0 25 4 32 9 13 0 35 -12
28 -4 -3 -13 0 -21 5 -13 8 -13 10 0 18 12 8 12 13 -4 30 -13 14 -16 28 -11
50 7 32 11 34 56 31 14 0 31 6 39 14 10 13 26 15 78 11 36 -3 69 -8 73 -11z
m3430 -614 c16 -16 31 -42 34 -57 3 -15 11 -45 17 -65 17 -58 5 -191 -20 -216
-41 -41 -95 -47 -157 -18 -93 44 -156 113 -169 189 -9 48 0 60 73 97 31 16 74
45 96 64 51 45 88 47 126 6z m-1594 -462 c-3 -8 -6 -5 -6 6 -1 11 2 17 5 13 3
-3 4 -12 1 -19z m-12 -45 c7 -7 18 -13 24 -13 5 0 12 -4 16 -9 3 -6 -4 -9 -15
-8 -11 1 -20 5 -20 9 0 5 -11 13 -25 18 -14 5 -25 17 -25 25 0 16 3 15 45 -22z
m2159 -108 c11 -8 26 -15 33 -15 26 0 63 -51 61 -84 -7 -82 -86 -153 -131
-116 -7 5 -27 21 -44 36 -28 22 -32 31 -30 65 1 22 7 39 14 39 6 0 14 10 18
23 19 66 41 81 79 52z m-4424 -404 c0 -10 164 -149 187 -158 21 -8 53 -40 46
-46 -3 -3 11 -16 31 -29 20 -13 36 -27 36 -31 0 -5 -17 -29 -39 -53 -62 -71
-110 -184 -135 -319 -3 -16 -3 -25 0 -18 8 18 34 4 34 -19 0 -16 3 -18 14 -9
10 8 15 9 18 1 6 -19 38 1 44 29 4 14 12 35 18 46 5 11 10 23 11 27 0 3 33 45
73 92 40 47 71 90 67 95 -3 5 0 13 7 17 26 16 54 10 96 -19 l44 -29 27 19 c19
15 49 22 103 26 42 3 79 3 82 0 3 -3 1 -15 -5 -27 -6 -12 1 -8 18 11 16 19 42
36 61 39 18 4 50 15 70 25 20 11 44 19 53 19 9 0 22 7 30 16 21 25 65 44 105
44 42 0 118 40 134 70 6 11 16 20 21 20 16 0 1 -51 -22 -76 -13 -14 -17 -27
-12 -40 18 -49 28 -41 77 63 44 92 66 123 66 93 0 -5 -4 -10 -9 -10 -5 0 -8
-18 -6 -40 2 -23 -1 -40 -7 -40 -5 0 -8 -6 -5 -14 3 -8 3 -17 0 -20 -4 -3 -8
-17 -10 -31 -5 -43 -12 -80 -13 -80 -3 0 -13 -74 -14 -107 0 -21 -4 -38 -9
-38 -4 0 -6 -16 -4 -35 3 -20 0 -38 -5 -41 -5 -3 -8 -18 -7 -32 2 -15 -1 -33
-5 -41 -5 -8 -3 -17 5 -22 8 -5 9 -9 3 -9 -8 0 -11 -19 -9 -55 1 -31 -2 -58
-7 -62 -6 -3 -5 -9 3 -14 12 -8 12 -11 0 -18 -12 -8 -12 -12 -2 -24 9 -12 9
-16 -1 -19 -10 -4 -10 -8 1 -21 7 -10 9 -17 3 -17 -5 0 -9 -18 -8 -40 1 -24
-2 -40 -9 -40 -6 0 -20 -7 -31 -15 -18 -13 -18 -14 8 -12 15 1 27 -2 27 -8 1
-5 -2 -10 -6 -11 -33 -4 -59 -34 -30 -34 8 0 22 -9 33 -21 16 -17 16 -22 4
-30 -13 -8 -13 -10 0 -19 13 -9 13 -11 0 -20 -13 -9 -13 -11 0 -20 13 -9 13
-11 1 -19 -12 -8 -12 -12 -2 -24 8 -11 9 -17 1 -22 -8 -5 -8 -10 0 -20 8 -10
8 -15 0 -20 -8 -5 -7 -11 1 -22 10 -12 10 -16 -1 -23 -11 -7 -11 -11 -1 -23 9
-12 9 -16 -1 -19 -10 -4 -11 -8 -1 -20 7 -8 10 -18 6 -22 -11 -10 -11 -196 0
-203 5 -3 3 -9 -4 -14 -10 -6 -9 -12 5 -28 18 -20 18 -21 1 -21 -16 0 -16 -3
6 -26 17 -18 19 -23 6 -18 -10 3 -17 1 -17 -5 0 -7 7 -14 15 -17 19 -8 20 -24
1 -24 -11 0 -14 -15 -12 -62 1 -35 4 -67 7 -73 3 -5 5 -46 4 -90 -1 -44 0 -84
3 -89 3 -5 6 -55 8 -110 1 -56 5 -132 9 -171 7 -71 11 -605 5 -728 -2 -37 -7
-70 -13 -74 -5 -3 -26 -7 -47 -9 -20 -2 -58 -12 -84 -24 -62 -26 -87 -25 -133
6 -27 18 -47 24 -68 21 -16 -3 -79 -12 -140 -21 -60 -9 -152 -28 -202 -42
l-93 -26 -52 35 c-73 48 -185 97 -222 97 -53 0 -145 -44 -195 -94 l-46 -46
-50 14 c-44 13 -100 24 -222 43 -30 5 -33 8 -33 42 0 20 7 81 15 136 9 66 11
113 5 140 -5 22 -12 74 -16 115 -3 41 -8 86 -10 100 -2 14 -6 45 -9 70 -4 25
-24 124 -46 221 -21 97 -42 201 -45 230 -13 109 -5 404 12 431 3 4 0 8 -7 8
-8 0 -8 4 -2 13 6 6 13 48 16 92 8 104 11 124 37 225 32 130 89 298 125 370
40 79 51 119 65 230 5 47 13 103 16 125 3 22 6 49 8 60 1 12 5 25 8 30 3 6 4
69 3 140 -2 114 0 141 22 215 14 47 38 106 54 131 16 25 29 55 29 66 0 11 3
23 7 26 9 10 23 9 23 -2z m345 -342 c-4 -17 -13 -42 -21 -57 -8 -15 -14 -31
-14 -37 0 -5 -14 -26 -31 -45 l-31 -35 6 29 c4 15 16 41 28 56 11 15 17 33 14
39 -6 9 41 81 52 81 2 0 1 -14 -3 -31z m-66 -15 c-12 -33 -59 -90 -59 -72 0
15 10 32 42 70 28 35 30 35 17 2z m-39 -194 c-6 -12 -14 -19 -17 -17 -2 3 1
15 7 27 6 12 14 19 17 17 2 -3 -1 -15 -7 -27z m3371 -46 c57 -14 115 -33 129
-41 14 -10 41 -16 62 -14 22 1 38 -3 38 -9 0 -6 4 -9 9 -5 5 3 13 0 16 -6 4
-5 14 -8 22 -5 8 3 11 1 8 -4 -3 -6 -1 -10 4 -10 6 0 11 5 11 11 0 5 4 7 10 4
6 -4 7 1 3 12 -3 10 -3 15 2 11 4 -4 14 0 21 10 12 15 13 14 14 -15 0 -37 -29
-73 -60 -73 -25 0 -25 -11 1 -63 30 -59 67 -107 84 -107 21 0 40 -39 26 -53
-7 -7 -11 -7 -11 -1 0 6 -7 11 -15 11 -8 0 -15 -4 -15 -9 0 -4 4 -8 9 -8 6 0
38 -24 72 -54 43 -38 74 -57 101 -61 21 -4 40 -11 44 -16 3 -5 13 -9 23 -9 10
0 28 -12 42 -26 31 -34 153 -114 173 -114 9 0 16 -4 16 -10 0 -5 7 -10 15 -10
8 0 15 -4 15 -10 0 -5 7 -10 15 -10 24 0 71 -54 85 -96 8 -22 10 -65 7 -108
-3 -48 0 -87 11 -121 24 -78 55 -144 66 -138 5 3 6 1 2 -5 -11 -18 4 -61 20
-55 8 3 12 9 9 13 -3 5 5 7 17 5 47 -6 54 -13 50 -56 -3 -25 -7 -36 -12 -29
-6 9 -10 6 -15 -9 -4 -14 -12 -20 -21 -17 -8 3 -13 2 -10 -2 3 -6 -462 -5
-526 1 -19 1 -23 9 -11 20 3 4 14 24 23 46 18 38 17 39 -4 63 -13 13 -26 35
-29 48 -21 75 -99 108 -280 115 -54 3 -114 9 -135 14 -20 5 -71 12 -112 15
-151 12 -230 27 -231 45 -5 75 21 337 36 361 3 4 7 65 9 135 3 71 9 132 14
137 6 6 33 3 70 -7 34 -8 80 -16 102 -18 22 -1 40 -5 40 -9 0 -3 10 -4 21 -1
21 6 20 6 -5 22 -14 9 -29 23 -31 32 -9 28 -94 62 -151 61 l-51 -1 -7 46 c-3
25 -6 81 -6 124 l0 79 34 0 c18 0 80 -12 137 -26z m-7388 -201 c-4 -9 2 -22
13 -31 16 -12 16 -14 2 -9 -13 5 -18 1 -18 -14 0 -12 4 -17 11 -13 6 3 3 -5
-6 -20 -20 -30 -20 -30 -46 -16 -12 7 -19 7 -19 1 0 -6 -15 0 -34 12 -25 16
-34 29 -33 50 0 15 5 27 12 27 7 0 20 9 31 21 12 13 27 19 41 16 13 -2 23 0
23 6 0 5 6 4 14 -3 8 -6 12 -19 9 -27z m5567 -23 c0 -5 -4 -10 -10 -10 -5 0
-10 5 -10 10 0 6 5 10 10 10 6 0 10 -4 10 -10z m-5775 -10 c3 -5 13 -6 22 -3
13 5 15 2 10 -11 -4 -10 -7 -27 -7 -38 0 -17 -3 -18 -15 -8 -12 10 -15 9 -15
-4 0 -10 -4 -15 -9 -12 -5 3 -14 -1 -21 -9 -7 -8 -16 -13 -20 -10 -5 3 -11 1
-15 -4 -12 -20 -32 0 -27 27 6 36 20 52 45 52 20 0 20 0 1 15 -18 14 -17 14
13 15 17 0 34 -4 38 -10z m5705 -5 c0 -8 -4 -15 -9 -15 -5 0 -11 7 -15 15 -3
9 0 15 9 15 8 0 15 -7 15 -15z m119 -10 c3 -17 2 -17 -13 -3 -19 20 -21 31 -3
26 6 -3 14 -13 16 -23z m36 -13 c0 -18 -20 -15 -23 4 -3 10 1 15 10 12 7 -3
13 -10 13 -16z m-185 -2 c0 -5 -2 -10 -4 -10 -3 0 -8 5 -11 10 -3 6 -1 10 4
10 6 0 11 -4 11 -10z m-25 -11 c11 -17 -1 -21 -15 -4 -8 9 -8 15 -2 15 6 0 14
-5 17 -11z m-19 -36 c-7 -7 -26 7 -26 19 0 6 6 6 15 -2 9 -7 13 -15 11 -17z
m-19 -29 c-9 -9 -28 6 -21 18 4 6 10 6 17 -1 6 -6 8 -13 4 -17z m-5759 -16 c9
-9 12 -9 12 0 0 7 4 12 8 12 11 0 3 -61 -10 -76 -11 -15 10 -64 28 -64 18 0
38 -74 21 -79 -6 -2 4 -10 23 -17 20 -7 27 -13 16 -13 -15 -1 -16 -4 -6 -16
19 -22 -15 -53 -41 -37 -15 9 -20 8 -28 -6 -9 -15 -10 -16 -11 0 0 10 -11 19
-30 23 -16 4 -30 11 -30 16 0 6 -9 7 -21 4 -16 -5 -20 -3 -17 6 3 8 -1 19 -7
24 -17 14 -27 62 -15 70 5 3 7 12 3 20 -3 8 0 15 6 15 6 0 11 14 11 30 0 17 4
30 9 30 5 0 13 9 16 20 3 11 13 20 21 20 8 0 14 7 14 15 0 18 12 19 28 3z
m5943 -18 c10 -6 19 -21 19 -33 -1 -20 -2 -20 -16 6 -8 15 -21 27 -29 27 -24
0 -17 -38 10 -56 36 -24 48 -49 35 -74 -14 -27 -28 -25 -23 3 3 16 -5 31 -31
55 -38 34 -44 50 -24 70 15 15 33 15 59 2z m-144 -36 c-1 -1 -21 -4 -45 -8
-36 -5 -41 -4 -31 7 7 7 23 11 36 9 15 -3 23 0 23 9 0 11 2 11 10 -1 5 -8 8
-15 7 -16z m-3787 6 c0 -5 -4 -10 -10 -10 -5 0 -10 5 -10 10 0 6 5 10 10 10 6
0 10 -4 10 -10z m0 -50 c0 -10 5 -22 12 -26 8 -5 6 -10 -8 -15 -14 -6 -15 -8
-3 -8 31 -2 68 -60 133 -212 36 -86 66 -161 66 -167 0 -6 12 -25 27 -42 l26
-32 -12 -101 c-7 -56 -19 -120 -27 -142 l-15 -41 -102 -12 c-95 -11 -147 -9
-147 7 0 4 -13 14 -29 24 -39 23 -62 93 -56 167 9 105 16 149 29 187 16 45 30
138 16 108 -8 -19 -9 -19 -9 -1 -1 15 -4 16 -15 7 -10 -9 -15 -8 -20 4 -5 13
15 21 46 16 7 -1 23 42 45 119 15 57 20 89 22 153 1 38 21 45 21 7z m3768 13
c-10 -2 -28 -2 -40 0 -13 2 -5 4 17 4 22 1 32 -1 23 -4z m19 -28 c0 -8 -8 -15
-18 -15 -9 0 -26 -3 -36 -6 -12 -5 -15 -4 -8 4 6 5 19 13 30 16 11 3 2 3 -20
0 -29 -3 -36 -2 -25 5 24 17 77 14 77 -4z m108 -43 c-1 -1 -10 0 -19 4 -9 3
-16 17 -16 33 l0 26 19 -30 c10 -16 17 -31 16 -33z m-55 -124 c0 -14 -20 -9
-50 14 -17 12 -30 28 -30 35 0 8 -4 11 -10 8 -11 -7 -14 8 -4 18 7 7 94 -63
94 -75z m3900 35 c0 -16 -6 -35 -13 -45 -16 -20 -72 -29 -71 -10 1 6 2 21 3
31 2 27 28 51 57 51 20 0 24 -5 24 -27z m-3744 -50 c-11 -11 -17 4 -9 23 7 18
8 18 11 1 2 -10 1 -21 -2 -24z m-115 10 c8 -9 9 -14 2 -10 -6 4 -14 1 -16 -5
-3 -7 -6 -3 -6 10 -1 26 2 27 20 5z m49 -18 c11 -13 10 -14 -4 -9 -9 3 -16 10
-16 15 0 13 6 11 20 -6z m48 -3 c2 -7 -3 -12 -12 -12 -9 0 -16 7 -16 16 0 17
22 14 28 -4z m-4968 -157 c41 -14 82 -25 92 -25 9 0 24 -10 32 -22 9 -12 16
-18 16 -14 0 5 2 7 5 4 3 -3 -2 -22 -10 -42 -9 -21 -14 -43 -12 -49 2 -7 -3
-27 -10 -46 -11 -26 -12 -36 -2 -41 20 -13 5 -98 -22 -123 -26 -25 -78 -47
-126 -54 -29 -5 -34 -2 -46 28 -10 23 -11 38 -4 47 5 6 7 12 4 12 -3 0 -1 13
4 30 9 25 7 35 -23 77 -29 42 -33 56 -32 108 0 33 4 77 8 98 9 45 21 47 126
12z m-251 -196 c31 -18 33 -23 26 -56 -8 -46 -30 -64 -75 -60 -29 2 -38 8 -51
35 -39 83 19 130 100 81z m6971 -83 c99 -8 217 -27 253 -39 48 -17 80 -50 64
-66 -8 -8 -8 -11 2 -11 7 0 15 9 18 20 5 20 23 28 23 11 0 -6 12 -4 27 4 24
13 29 12 43 -3 18 -18 17 -25 -26 -167 -8 -27 -15 -58 -15 -67 0 -10 -4 -18
-10 -18 -5 0 -9 -7 -9 -15 0 -18 -30 -20 -31 -2 -1 6 0 28 1 48 1 21 -3 40 -9
43 -6 4 -4 16 5 34 20 38 17 59 -7 65 -15 4 -23 0 -26 -13 -3 -11 -14 -22 -25
-25 -10 -4 -18 -14 -17 -23 1 -9 0 -19 -1 -22 -2 -3 -3 -25 -4 -50 -1 -25 -6
-56 -10 -69 -6 -16 -5 -21 3 -17 6 4 17 4 24 -1 6 -4 26 -8 42 -9 67 -3 75 -5
75 -19 0 -8 5 -15 10 -15 6 0 10 -7 10 -15 0 -8 5 -15 10 -15 6 0 10 -7 10
-15 0 -25 16 -17 80 43 65 60 90 72 209 103 82 21 167 24 224 8 47 -13 58 -38
60 -140 2 -66 -2 -83 -27 -130 -16 -30 -35 -61 -42 -69 -15 -18 -13 -95 4
-112 7 -7 12 -8 12 -2 0 5 13 11 29 12 24 2 30 -3 36 -25 5 -20 2 -31 -11 -40
-29 -21 -51 -15 -67 18 -9 20 -17 27 -22 20 -4 -8 -11 -9 -19 -2 -8 7 -21 1
-43 -20 -18 -16 -35 -29 -38 -29 -11 0 -65 -58 -65 -69 0 -19 -50 -33 -81 -22
-15 5 -31 6 -35 3 -3 -4 -5 5 -2 20 3 17 1 25 -5 21 -6 -4 -8 0 -4 10 20 49
20 53 3 32 -10 -11 -15 -15 -12 -8 4 6 2 14 -3 18 -6 3 -8 12 -5 20 3 7 1 23
-6 34 -8 16 -8 21 2 22 9 0 9 2 1 5 -8 4 -9 14 -3 34 l8 29 -71 12 c-51 9 -78
20 -93 36 -34 36 -81 28 -133 -23 -21 -21 -22 -25 -7 -39 12 -13 13 -45 1 -45
-17 0 -35 16 -35 31 0 10 -3 19 -7 20 -87 8 -141 8 -199 1 -39 -4 -78 -4 -87
0 -10 4 -24 11 -33 16 -13 6 -17 27 -20 96 -5 103 12 169 52 207 24 22 25 28
19 84 -4 37 -18 80 -36 113 -16 29 -29 58 -29 64 0 5 -14 31 -31 55 -16 25
-27 49 -22 54 9 8 53 16 68 12 6 -2 30 -5 55 -7z m1173 -146 c-3 -11 -7 -20
-9 -20 -2 0 -4 9 -4 20 0 11 4 20 9 20 5 0 7 -9 4 -20z m190 -140 c35 -18 36
-63 2 -114 -14 -21 -31 -52 -39 -69 -18 -44 -61 -87 -85 -87 -27 0 -41 28 -30
57 4 12 11 53 15 89 7 70 35 117 78 134 24 9 21 9 59 -10z m-7879 -283 c-25
-14 -38 -3 -19 17 14 14 20 15 26 4 5 -8 2 -16 -7 -21z m31 -17 c3 -6 -1 -7
-9 -4 -18 7 -21 14 -7 14 6 0 13 -4 16 -10z m7775 -171 c39 -22 57 -58 43 -84
-13 -23 -94 -105 -104 -105 -21 0 -84 41 -96 62 -27 49 -12 97 40 128 41 26
70 25 117 -1z m-1103 -122 c16 0 12 -35 -5 -42 -8 -3 -20 -1 -27 5 -6 5 -15 7
-18 3 -11 -10 -36 18 -30 33 4 11 14 13 37 8 17 -4 36 -7 43 -7z m618 -157
c17 -32 11 -54 -20 -80 -28 -23 -42 -20 -58 14 -34 73 41 137 78 66z m461
-110 c58 -20 70 -95 24 -142 -28 -28 -32 -29 -53 -15 -12 8 -30 28 -40 46 -16
26 -17 37 -8 62 8 24 32 54 47 59 1 0 14 -5 30 -10z m-1234 -37 c24 -9 60 -27
80 -40 21 -13 44 -23 53 -23 31 0 12 -26 -46 -64 -90 -57 -111 -63 -144 -42
-53 35 -71 142 -28 173 22 17 34 16 85 -4z m-2302 -193 c12 -36 12 -43 -2 -57
-9 -8 -20 -13 -25 -10 -7 5 -10 69 -4 110 2 18 18 -4 31 -43z m3304 34 c23
-23 19 -58 -10 -93 -27 -32 -58 -39 -85 -18 -32 25 -5 97 46 118 29 11 32 11
49 -7z m-5629 -364 c3 -5 1 -10 -4 -10 -6 0 -11 5 -11 10 0 6 2 10 4 10 3 0 8
-4 11 -10z m5583 -16 c34 -23 29 -68 -12 -110 l-34 -35 -28 24 c-37 32 -37 76
1 111 32 30 42 32 73 10z m-330 -83 c20 -12 10 -45 -14 -49 -14 -2 -21 3 -21
15 -2 40 9 51 35 34z m-5338 -47 c0 -17 -22 -14 -28 4 -2 7 3 12 12 12 9 0 16
-7 16 -16z m30 -8 c0 -7 -6 -19 -14 -25 -11 -9 -12 -6 -8 14 5 26 22 35 22 11z
m4935 -2 c26 -5 35 -11 31 -21 -3 -8 -6 -19 -6 -24 0 -5 -9 -9 -19 -9 -11 0
-22 -4 -25 -9 -3 -5 -17 -11 -31 -13 -31 -6 -65 24 -58 50 5 21 41 43 60 37 6
-2 28 -7 48 -11z m-4810 -4 c-3 -5 -18 -10 -33 -9 l-27 1 25 8 c35 11 42 11
35 0z m55 -17 c0 -20 -49 -85 -50 -67 0 6 7 28 15 48 16 38 35 48 35 19z m70
-18 c0 -24 -27 -65 -42 -65 -13 0 -9 30 8 66 18 37 34 36 34 -1z m-199 -52
c-11 -21 -20 -32 -21 -25 0 17 30 75 36 69 3 -3 -4 -22 -15 -44z m-1314 -20
c-3 -10 -5 -2 -5 17 0 19 2 27 5 18 2 -10 2 -26 0 -35z m1397 -59 c5 -14 4
-15 -9 -4 -17 14 -19 20 -6 20 5 0 12 -7 15 -16z m5490 -104 c49 -18 22 -100
-32 -100 -16 0 -42 24 -42 40 0 9 40 70 46 70 2 0 14 -4 28 -10z m-5574 -20
c0 -5 -4 -10 -10 -10 -5 0 -10 5 -10 10 0 6 5 10 10 10 6 0 10 -4 10 -10z
m-2268 -257 c20 -26 38 -70 48 -122 8 -44 7 -47 -29 -86 -20 -22 -44 -51 -53
-64 -16 -23 -17 -23 -40 -5 -13 11 -24 33 -26 49 -2 17 -10 43 -18 60 -10 19
-11 31 -4 33 5 2 10 12 10 22 0 9 7 23 15 30 8 7 15 20 15 30 0 22 37 70 54
70 7 0 19 -8 28 -17z m-422 -147 c0 -3 -11 -6 -25 -6 -23 0 -24 2 -15 20 10
18 13 19 25 6 8 -8 15 -17 15 -20z m5173 -363 c4 -16 15 -59 26 -98 20 -68 20
-69 1 -47 -10 13 -22 44 -26 70 -3 26 -9 52 -12 57 -11 17 -12 45 -3 45 5 0
11 -12 14 -27z m-3820 -190 c20 -64 70 -181 92 -215 33 -50 105 -95 164 -104
62 -9 78 -19 85 -51 10 -43 -24 -272 -49 -336 -19 -49 -20 -201 -1 -300 8 -41
12 -86 9 -98 -6 -24 -47 -69 -62 -69 -19 0 -42 126 -60 335 -7 81 -17 125 -36
169 -14 32 -28 79 -31 105 -3 25 -8 53 -11 61 -12 30 -14 46 -19 120 -3 42
-10 78 -17 82 -9 6 -9 8 2 8 9 0 7 6 -7 18 -26 22 -52 94 -56 157 -3 28 -5 52
-6 55 -1 3 -2 8 -2 11 1 4 -3 21 -8 38 -9 32 3 45 13 14z m-1144 -498 c10 -10
11 -198 1 -210 -18 -22 -204 -43 -215 -24 -4 5 -14 9 -23 9 -9 0 -24 11 -34
24 -19 26 -31 86 -17 86 6 0 7 5 4 11 -11 18 5 79 20 79 8 0 15 5 15 10 0 12
52 2 61 -12 3 -5 15 -10 27 -11 13 -1 23 -10 27 -24 5 -22 6 -22 25 -6 11 10
20 25 20 34 0 41 11 51 49 44 20 -4 38 -8 40 -10z m-492 -157 c-3 -8 -6 -5 -6
6 -1 11 2 17 5 13 3 -3 4 -12 1 -19z m-455 -26 c-10 -3 -10 -7 -1 -18 6 -8 15
-11 20 -8 14 8 10 -6 -5 -22 -8 -8 -25 -14 -38 -14 -20 1 -21 2 -7 13 11 8 14
19 9 32 -8 21 7 38 24 28 6 -4 5 -8 -2 -11z m-2 -92 c0 -5 -2 -10 -4 -10 -3 0
-8 5 -11 10 -3 6 -1 10 4 10 6 0 11 -4 11 -10z m20 -24 c0 -19 -27 -28 -34
-11 -3 9 0 12 10 8 7 -3 14 0 14 6 0 6 2 11 5 11 3 0 5 -6 5 -14z m480 -276
c0 -5 -9 -10 -20 -10 -11 0 -20 5 -20 10 0 6 9 10 20 10 11 0 20 -4 20 -10z
m435 -38 c4 -9 8 -38 8 -65 2 -34 -1 -46 -10 -42 -7 2 -13 0 -13 -5 0 -6 -5
-10 -11 -10 -6 0 -8 8 -5 18 3 9 0 28 -7 42 -14 28 -11 70 4 70 6 0 7 4 4 10
-3 5 0 7 9 4 8 -3 17 -13 21 -22z m35 -147 c-6 -8 -9 -19 -6 -24 10 -16 -5
-91 -19 -91 -21 0 -47 38 -46 67 1 64 0 63 43 63 34 0 39 -2 28 -15z m8174
-61 c23 -9 20 -53 -7 -98 -29 -46 -100 -96 -138 -96 -16 0 -43 -9 -61 -20 -39
-23 -57 -25 -82 -7 -17 12 -16 14 9 31 15 10 43 20 63 23 40 6 111 67 159 135
27 40 31 42 57 32z m76 -203 c0 -43 -61 -68 -68 -28 -5 25 16 47 44 47 17 0
24 -6 24 -19z"/>
<path d="M5170 9981 c0 -17 18 -21 24 -6 3 9 0 15 -9 15 -8 0 -15 -4 -15 -9z"/>
<path d="M5340 9390 c0 -5 5 -10 11 -10 5 0 7 5 4 10 -3 6 -8 10 -11 10 -2 0
-4 -4 -4 -10z"/>
<path d="M5325 9360 c-3 -5 -2 -10 4 -10 5 0 13 5 16 10 3 6 2 10 -4 10 -5 0
-13 -4 -16 -10z"/>
<path d="M5298 9333 c7 -3 16 -2 19 1 4 3 -2 6 -13 5 -11 0 -14 -3 -6 -6z"/>
<path d="M4723 9313 c-25 -5 -32 -40 -10 -48 36 -13 72 -13 90 0 20 14 20 14
-5 24 -14 5 -29 15 -33 20 -3 6 -9 10 -13 10 -4 -1 -17 -4 -29 -6z"/>
<path d="M5200 9220 c-8 -5 -18 -6 -22 -4 -4 3 -8 -2 -8 -11 0 -12 6 -15 23
-9 28 8 30 10 26 23 -3 6 -9 7 -19 1z"/>
<path d="M4790 8913 c0 -4 4 -14 9 -22 11 -17 45 -7 39 12 -5 13 -48 23 -48
10z"/>
<path d="M5990 8819 c0 -5 5 -7 10 -4 6 3 10 8 10 11 0 2 -4 4 -10 4 -5 0 -10
-5 -10 -11z"/>
<path d="M5065 8460 c-3 -5 3 -10 14 -10 11 0 23 5 26 10 3 6 -3 10 -14 10
-11 0 -23 -4 -26 -10z"/>
<path d="M8720 5150 c0 -5 5 -10 10 -10 6 0 10 5 10 10 0 6 -4 10 -10 10 -5 0
-10 -4 -10 -10z"/>
<path d="M8610 4916 c0 -2 7 -7 16 -10 8 -3 12 -2 9 4 -6 10 -25 14 -25 6z"/>
<path d="M1225 1590 c3 -5 8 -10 11 -10 2 0 4 5 4 10 0 6 -5 10 -11 10 -5 0
-7 -4 -4 -10z"/>
<path d="M3976 10967 c-9 -33 -8 -36 14 -32 11 2 20 0 20 -5 0 -4 8 -7 18 -5
9 1 11 0 5 -2 -16 -5 -16 -9 -3 -34 9 -15 7 -19 -7 -19 -17 -1 -16 -2 1 -15
22 -17 52 -20 60 -6 6 9 -17 107 -27 117 -3 3 -12 2 -19 -2 -25 -16 -51 -15
-45 1 4 8 2 17 -2 20 -5 2 -11 -5 -15 -18z"/>
<path d="M8573 10974 c-3 -8 -1 -20 6 -27 8 -8 11 -4 11 16 0 30 -7 35 -17 11z"/>
<path d="M8607 10984 c-3 -3 -2 -17 3 -30 7 -18 6 -22 -5 -18 -18 7 -41 -34
-26 -49 7 -7 16 -6 28 4 17 13 17 13 0 -7 -9 -11 -14 -24 -10 -29 5 -4 2 -5
-4 -1 -9 5 -13 -2 -13 -25 0 -32 -14 -88 -31 -121 -5 -11 -4 -18 4 -22 8 -3 9
-7 2 -13 -13 -11 -17 -53 -5 -53 6 0 10 8 11 18 0 11 2 12 6 4 3 -7 -3 -23
-13 -34 -14 -15 -16 -22 -6 -25 6 -3 12 -14 12 -26 0 -13 3 -17 8 -11 6 9 39
13 120 14 12 0 22 4 23 8 1 4 3 42 4 86 3 69 2 76 -10 60 -8 -11 -15 -25 -15
-33 0 -8 -3 -11 -7 -8 -3 4 -12 -1 -20 -11 -13 -15 -14 -15 -9 10 4 15 2 30
-4 33 -15 9 -12 25 5 25 8 0 15 -4 15 -10 0 -5 5 -10 10 -10 6 0 10 7 10 15 0
8 5 15 10 15 6 0 10 5 10 10 0 6 -16 10 -36 10 l-36 0 4 100 c2 55 0 100 -4
100 -4 0 -5 7 -2 15 6 15 -16 22 -29 9z m13 -215 c0 -5 -4 -9 -10 -9 -5 0 -10
7 -10 16 0 8 5 12 10 9 6 -3 10 -10 10 -16z"/>
<path d="M9310 10930 c0 -5 5 -10 10 -10 6 0 10 5 10 10 0 6 -4 10 -10 10 -5
0 -10 -4 -10 -10z"/>
<path d="M8688 10923 c7 -3 16 -2 19 1 4 3 -2 6 -13 5 -11 0 -14 -3 -6 -6z"/>
<path d="M3990 10911 c0 -5 8 -15 18 -22 15 -12 16 -12 5 2 -7 9 -10 19 -6 22
3 4 1 7 -5 7 -7 0 -12 -4 -12 -9z"/>
<path d="M9342 10855 c0 -22 -2 -71 -5 -108 -4 -49 -2 -67 6 -64 14 4 20 173
7 196 -6 11 -8 3 -8 -24z"/>
<path d="M9232 10820 c0 -14 2 -19 5 -12 2 6 2 18 0 25 -3 6 -5 1 -5 -13z"/>
<path d="M4040 10817 c0 -8 -7 -18 -15 -21 -11 -4 -14 -15 -11 -33 2 -16 5
-28 6 -28 7 0 5 -105 -2 -124 -7 -19 -5 -22 7 -17 11 4 15 -2 15 -24 0 -17 5
-31 10 -31 32 -5 35 -3 33 36 -1 28 0 33 5 17 4 -13 12 -23 17 -22 12 1 7 40
-8 58 -6 8 -12 32 -14 55 -6 87 -14 126 -28 137 -12 10 -15 9 -15 -3z"/>
<path d="M9273 10730 c3 -10 0 -21 -5 -22 -15 -5 13 -48 31 -48 10 0 11 3 2
14 -10 11 -8 17 6 25 17 9 17 11 -4 30 -28 26 -37 27 -30 1z"/>
<path d="M2174 10720 c0 -13 4 -16 10 -10 7 7 7 13 0 20 -6 6 -10 3 -10 -10z"/>
<path d="M8236 10693 c-6 -14 -5 -15 5 -6 7 7 10 15 7 18 -3 3 -9 -2 -12 -12z"/>
<path d="M2080 10676 c0 -2 7 -9 15 -16 13 -11 14 -10 9 4 -5 14 -24 23 -24
12z"/>
<path d="M1365 10659 c-4 -6 -3 -15 3 -21 6 -6 11 -4 15 6 7 18 -9 31 -18 15z"/>
<path d="M7571 10661 c-10 -6 -10 -10 -1 -16 13 -8 24 -1 19 14 -3 6 -10 7
-18 2z"/>
<path d="M9328 10663 c7 -3 16 -2 19 1 4 3 -2 6 -13 5 -11 0 -14 -3 -6 -6z"/>
<path d="M4110 10641 c0 -11 5 -23 10 -26 6 -4 8 -10 5 -15 -3 -5 3 -18 14
-29 11 -11 18 -28 17 -38 -2 -10 -1 -12 1 -5 3 6 9 12 15 12 7 0 7 5 -1 14 -6
7 -9 21 -5 30 3 9 1 16 -6 16 -7 0 -9 8 -5 22 6 17 4 20 -9 15 -10 -4 -16 -1
-16 8 0 8 -4 15 -10 15 -5 0 -10 -9 -10 -19z"/>
<path d="M1150 9896 c0 -9 5 -16 10 -16 6 0 10 4 10 9 0 6 -4 13 -10 16 -5 3
-10 -1 -10 -9z"/>
<path d="M8924 9758 c-4 -7 -7 -32 -5 -56 2 -26 -2 -48 -9 -52 -15 -9 3 -240
25 -302 8 -24 16 -60 19 -79 2 -20 14 -55 25 -77 12 -23 21 -54 21 -69 0 -15
9 -57 21 -93 11 -36 29 -92 40 -125 11 -33 19 -83 18 -110 -1 -28 3 -60 9 -72
7 -12 12 -35 12 -52 0 -16 5 -31 12 -33 8 -3 12 -37 13 -106 1 -110 13 -140
52 -128 23 7 55 69 47 91 -4 8 -2 15 4 15 6 0 8 9 5 19 -3 13 2 21 16 26 20 6
21 14 23 173 3 226 3 217 -11 302 -7 41 -15 120 -17 175 -3 55 -13 126 -22
157 -15 51 -22 59 -67 85 -33 19 -51 36 -53 51 -2 12 -8 22 -14 22 -14 0 -2
168 13 187 6 7 8 13 3 13 -5 0 -2 5 6 10 13 8 12 11 -5 24 -25 19 -170 22
-181 4z"/>
<path d="M7907 9741 c-35 -6 -53 -25 -24 -26 6 -1 23 -7 37 -15 35 -19 70 -21
103 -7 39 17 36 47 -5 47 -18 0 -42 2 -53 4 -11 2 -37 1 -58 -3z"/>
<path d="M7004 9728 c-16 -4 -51 -10 -78 -13 l-49 -7 29 -23 c16 -14 34 -24
41 -25 15 0 113 -101 113 -115 -1 -5 -7 -27 -14 -47 -17 -48 -8 -63 30 -46 46
20 72 49 89 100 8 26 15 50 14 55 -5 21 15 61 34 71 12 6 49 13 83 16 56 5 63
3 82 -19 12 -14 30 -25 39 -26 10 0 31 -2 46 -3 16 -1 31 2 33 6 6 9 75 41
112 52 26 9 29 25 5 27 -70 6 -585 3 -609 -3z"/>
<path d="M4138 9222 c-16 -17 -21 -42 -19 -93 1 -23 5 -27 28 -25 34 1 66 44
67 90 1 48 -41 64 -76 28z"/>
<path d="M7533 9003 c-13 -2 -23 -8 -23 -12 0 -4 -24 -13 -52 -20 -86 -20
-111 -33 -157 -80 -38 -39 -43 -47 -35 -70 14 -37 55 -49 91 -25 15 10 31 17
36 16 4 -1 25 9 47 23 32 20 51 24 109 24 81 -1 91 3 91 37 0 13 4 24 9 24 4
0 8 17 8 39 0 36 -1 38 -28 35 -15 -2 -31 1 -34 6 -6 10 -22 11 -62 3z"/>
<path d="M4025 8889 c-4 -13 -2 -25 6 -29 18 -12 41 0 35 17 -3 8 -6 19 -6 24
0 18 -29 8 -35 -12z"/>
<path d="M8386 8902 c-2 -4 -7 -24 -11 -45 -6 -29 -3 -42 10 -57 42 -47 64 -3
34 66 -20 45 -24 50 -33 36z"/>
<path d="M3813 8312 c-11 -7 -10 -54 2 -89 10 -30 33 -11 39 32 9 60 -5 80
-41 57z"/>
<path d="M2268 7673 c-10 -2 -19 -9 -19 -14 -1 -5 -2 -15 -3 -21 -4 -25 17
-38 60 -38 23 0 46 5 49 10 4 6 -7 24 -24 40 -30 30 -32 31 -63 23z"/>
<path d="M3500 7630 c0 -3 8 -10 18 -17 22 -13 77 -116 87 -162 4 -17 10 -31
15 -31 4 0 13 -13 18 -29 17 -49 68 -94 110 -98 20 -2 44 -6 52 -9 8 -4 32 -7
52 -9 21 -1 46 -9 55 -16 15 -12 16 -12 10 4 -6 16 -5 16 18 1 13 -8 34 -14
47 -12 19 2 11 9 -37 33 -66 33 -101 60 -155 119 -19 22 -47 52 -62 67 -15 16
-30 34 -35 41 -4 7 -38 39 -74 71 -49 42 -73 56 -93 55 -14 -1 -26 -5 -26 -8z"/>
<path d="M2298 7273 c7 -3 16 -2 19 1 4 3 -2 6 -13 5 -11 0 -14 -3 -6 -6z"/>
<path d="M1776 7078 c-32 -39 -36 -68 -4 -39 12 12 30 23 40 27 21 6 25 44 4
44 -7 0 -25 -14 -40 -32z"/>
<path d="M1850 7100 c0 -5 5 -10 10 -10 6 0 10 5 10 10 0 6 -4 10 -10 10 -5 0
-10 -4 -10 -10z"/>
<path d="M1455 4710 c-3 -5 -1 -10 4 -10 6 0 11 5 11 10 0 6 -2 10 -4 10 -3 0
-8 -4 -11 -10z"/>
<path d="M1389 4668 c-1 -2 -2 -15 -3 -29 -2 -23 1 -25 16 -16 9 6 15 13 12
16 -2 3 6 11 18 18 21 12 21 13 3 11 -11 -2 -26 -10 -33 -18 -12 -13 -13 -13
-8 3 4 13 0 25 -5 15z"/>
<path d="M1536 4642 c-2 -4 2 -15 9 -25 12 -17 13 -16 11 7 -1 25 -10 34 -20
18z"/>
<path d="M1211 4584 c0 -11 3 -14 6 -6 3 7 2 16 -1 19 -3 4 -6 -2 -5 -13z"/>
<path d="M1510 4490 c-6 -11 -8 -20 -6 -20 3 0 10 9 16 20 6 11 8 20 6 20 -3
0 -10 -9 -16 -20z"/>
<path d="M1475 4459 c-4 -6 -5 -12 -2 -15 2 -3 7 2 10 11 7 17 1 20 -8 4z"/>
<path d="M1408 4417 c-21 -6 -38 -14 -38 -18 0 -10 60 7 74 21 5 5 8 9 6 9 -3
-1 -22 -6 -42 -12z"/>
<path d="M4101 1284 c0 -11 3 -14 6 -6 3 7 2 16 -1 19 -3 4 -6 -2 -5 -13z"/>
<path d="M6545 690 c-16 -7 -11 -9 20 -9 29 -1 36 2 25 9 -17 11 -19 11 -45 0z"/>
<path d="M6265 470 c-3 -5 -1 -10 4 -10 6 0 11 5 11 10 0 6 -2 10 -4 10 -3 0
-8 -4 -11 -10z"/>
</g>
</svg>
